<svg width="251" height="250" viewBox="0 0 251 250" fill="none" xmlns="http://www.w3.org/2000/svg">
<path d="M209.706 118.159C205.892 74.2912 169.517 39.8627 124.816 39.3902H37.3164V129.478C39.2291 174.516 75.3677 210.846 120.541 212.5H209.954V118.396C209.954 118.171 209.706 118.171 209.706 118.171V118.159Z" fill="#23E2C2"/>
<path d="M213.554 116.28C209.74 72.4122 173.365 37.9725 128.664 37.5H41.1641V127.588C43.0768 172.626 79.2154 208.956 124.389 210.61H213.801V116.505C213.801 116.28 213.554 116.28 213.554 116.28Z" stroke="#505071" stroke-width="3.97" stroke-linecap="round" stroke-linejoin="round"/>
<path d="M178.889 119.813C185.853 123.312 190.252 130.434 190.252 138.231C190.252 139.795 190.252 141.348 190.252 142.912C190.252 153.139 179.046 162.297 168.054 162.297H87.3046C76.3123 162.297 67.4014 154.017 67.4014 143.801C67.4014 134.383 74.9396 126.62 84.7056 125.439C84.2781 123.909 84.0418 122.322 84.0418 120.691C84.0418 110.464 92.9527 102.183 103.945 102.183C108.22 102.183 112.192 103.454 115.432 105.581C116.152 103.96 117.008 102.442 118.009 100.99C122.251 88.8614 133.344 80.2093 147.003 80.2093C164.589 80.2093 179.823 94.4982 179.823 112.129C179.823 114.784 179.496 117.36 178.878 119.813H178.889Z" fill="white"/>
<path d="M183.457 116.303C190.422 119.802 194.821 126.924 194.821 134.721C194.821 136.285 194.821 137.838 194.821 139.401C194.821 149.629 183.615 158.787 172.622 158.787H91.873C80.8806 158.787 71.9697 150.506 71.9697 140.29C71.9697 130.873 79.508 123.11 89.274 121.928C88.8464 120.398 88.6101 118.812 88.6101 117.18C88.6101 106.953 97.521 98.6724 108.513 98.6724C112.789 98.6724 116.76 99.9438 120.001 102.07C120.721 100.45 121.576 98.9312 122.577 97.4798C126.819 85.351 137.913 76.6989 151.571 76.6989C169.157 76.6989 184.391 90.9879 184.391 108.618C184.391 111.274 184.065 113.85 183.446 116.303H183.457Z" stroke="#505071" stroke-width="3.97" stroke-linecap="round" stroke-linejoin="round"/>
</svg>
