<svg version="1.1" xmlns="http://www.w3.org/2000/svg" viewBox="0 0 884.6693790421928 1095.5663677414955" width="1769.3387580843855" height="2191.132735482991">
  <!-- svg-source:excalidraw -->
  
  <defs>
    <style class="style-fonts">
      @font-face {
        font-family: "Virgil";
        src: url("https://excalidraw.com/Virgil.woff2");
      }
      @font-face {
        font-family: "Cascadia";
        src: url("https://excalidraw.com/Cascadia.woff2");
      }
      @font-face {
        font-family: "Assistant";
        src: url("https://excalidraw.com/Assistant-Regular.woff2");
      }
    </style>
    
  </defs>
  <rect x="0" y="0" width="884.6693790421928" height="1095.5663677414955" fill="#ffffff"></rect><g stroke-linecap="round" transform="translate(251.95376997743324 10) rotate(0 217.5 198.5)"><path d="M32 0 C139.73 3.01, 249.05 1.78, 403 0 M32 0 C140.93 -0.57, 249.98 -1.07, 403 0 M403 0 C423.9 0.62, 435.26 11.55, 435 32 M403 0 C422.68 -1.09, 436.79 11.29, 435 32 M435 32 C433.98 137.85, 432.5 242.74, 435 365 M435 32 C437.16 120.02, 436.78 206.56, 435 365 M435 365 C435.6 387.78, 425.9 396.22, 403 397 M435 365 C434.89 387.6, 424.04 396.07, 403 397 M403 397 C324.07 394.66, 245.43 394.11, 32 397 M403 397 C269.85 395.11, 136.28 395.28, 32 397 M32 397 C11.04 397.06, 1.67 385.98, 0 365 M32 397 C12.59 395.33, 2.25 386.57, 0 365 M0 365 C-2.39 266.54, -1.06 165.25, 0 32 M0 365 C-1.58 237.04, -1.28 107.66, 0 32 M0 32 C-0.28 9.86, 9 -0.5, 32 0 M0 32 C0.07 11.63, 8.58 0.84, 32 0" stroke="#1e1e1e" stroke-width="2" fill="none"></path></g><g stroke-linecap="round" transform="translate(763.9537699774332 318) rotate(0 32 7.5)"><path d="M31.15 0.04 C37.72 0, 46.78 0.8, 52.13 1.76 C57.49 2.73, 61.93 4.29, 63.3 5.84 C64.68 7.4, 63.58 9.72, 60.39 11.09 C57.2 12.47, 50.6 13.44, 44.17 14.1 C37.75 14.75, 28.37 15.45, 21.84 15.02 C15.31 14.6, 8.65 12.94, 4.98 11.55 C1.31 10.16, -1.19 8.23, -0.17 6.65 C0.84 5.08, 5.73 3.2, 11.05 2.08 C16.38 0.97, 28.17 0.21, 31.77 -0.03 C35.37 -0.28, 32.58 0.49, 32.63 0.62 M38.74 0.7 C45.37 0.94, 53.52 1.32, 57.72 2.56 C61.92 3.8, 64.27 6.54, 63.95 8.14 C63.62 9.75, 60.45 11.13, 55.78 12.19 C51.11 13.26, 42.8 14.29, 35.93 14.53 C29.05 14.77, 20.27 14.47, 14.51 13.64 C8.75 12.81, 3.51 10.97, 1.38 9.55 C-0.75 8.14, -0.91 6.73, 1.72 5.16 C4.34 3.6, 10.99 0.94, 17.14 0.17 C23.3 -0.6, 35.15 0.41, 38.65 0.53 C42.15 0.65, 38.24 0.83, 38.14 0.89" stroke="#1e1e1e" stroke-width="2" fill="none"></path></g><g stroke-linecap="round" transform="translate(764.9537699774332 318) rotate(0 31.5 37)"><path d="M15.75 0 C27.8 -1.77, 41.04 0.2, 47.25 0 M15.75 0 C27.54 0.31, 39.88 0.44, 47.25 0 M47.25 0 C56.32 -0.95, 64.56 5.79, 63 15.75 M47.25 0 C58.13 -2.25, 63.95 7.27, 63 15.75 M63 15.75 C62.16 31.74, 63.5 44.11, 63 58.25 M63 15.75 C63.09 32.71, 63.57 47.83, 63 58.25 M63 58.25 C62.9 69.85, 57.5 73.19, 47.25 74 M63 58.25 C60.97 67.54, 55.77 73.27, 47.25 74 M47.25 74 C39.94 74.52, 28.34 74.12, 15.75 74 M47.25 74 C36.42 74.28, 26.05 74.07, 15.75 74 M15.75 74 C6.93 72.54, 1.95 68.95, 0 58.25 M15.75 74 C5.23 75.75, -0.06 67.6, 0 58.25 M0 58.25 C1.52 43.54, 1.56 26.06, 0 15.75 M0 58.25 C-0.35 40.94, -1.04 24.18, 0 15.75 M0 15.75 C0.06 6.09, 3.44 0.73, 15.75 0 M0 15.75 C-1.33 5.47, 7.34 -0.1, 15.75 0" stroke="#1e1e1e" stroke-width="2" fill="none"></path></g><g transform="translate(781.383770282609 342.5) rotate(0 15.069999694824219 12.5)"><text x="15.069999694824219" y="17.52" font-family="Virgil, Segoe UI Emoji" font-size="20px" fill="#1e1e1e" text-anchor="middle" style="white-space: pre;" direction="ltr" dominant-baseline="alphabetic">DB</text></g><g stroke-linecap="round" transform="translate(285.2461045644445 25.29048235034088) rotate(0 192.97938870030453 134.90110093390888)"><path d="M32 0 C100.48 0.3, 166.7 -0.47, 353.96 0 M353.96 0 C375.91 0.26, 386.84 9.23, 385.96 32 M385.96 32 C387.68 82.27, 388.12 137.59, 385.96 237.8 M385.96 237.8 C386.6 258.71, 375.16 269.06, 353.96 269.8 M353.96 269.8 C228.29 269.25, 99.57 270.36, 32 269.8 M32 269.8 C12.11 271.37, -0.78 259.04, 0 237.8 M0 237.8 C-1.34 163.77, -1.3 91.05, 0 32 M0 32 C-0.61 9.88, 9.17 1.18, 32 0" stroke="#1e1e1e" stroke-width="2.5" fill="none" stroke-dasharray="1.5 8"></path></g><g transform="translate(460.0727010801802 30.74413018348332) rotate(0 16.56999969482422 12.5)"><text x="0" y="17.52" font-family="Virgil, Segoe UI Emoji" font-size="20px" fill="#1e1e1e" text-anchor="start" style="white-space: pre;" direction="ltr" dominant-baseline="alphabetic">Org</text></g><g stroke-linecap="round"><g transform="translate(687.9537699774332 352) rotate(0 38.5 -1)"><path d="M-0.86 -0.57 C12.1 -0.93, 64.93 -1.24, 77.94 -1.68 M0.89 1.75 C13.76 0.96, 64.87 -2.93, 77.48 -3.63" stroke="#1e1e1e" stroke-width="2" fill="none"></path></g></g><mask></mask><g stroke-linecap="round" transform="translate(387.6324863922896 76.79658030964742) rotate(0 33 21)"><path d="M40.59 -0.21 C47.19 0.6, 55.16 5.06, 59.45 8.69 C63.74 12.32, 66.73 17.18, 66.34 21.56 C65.95 25.95, 62.07 31.47, 57.1 35.01 C52.13 38.55, 43.64 42.28, 36.54 42.79 C29.44 43.31, 20.5 40.68, 14.5 38.1 C8.49 35.52, 2.41 31.55, 0.51 27.33 C-1.39 23.11, 0.18 16.92, 3.09 12.76 C5.99 8.6, 10.46 4.16, 17.93 2.36 C25.4 0.57, 41.76 1.5, 47.91 1.99 C54.06 2.48, 54.82 5, 54.83 5.29 M30.38 1.46 C36.82 0.75, 44.65 -0.17, 50.42 2.29 C56.19 4.75, 62.72 11.86, 65.02 16.22 C67.33 20.58, 67.29 24.32, 64.25 28.45 C61.2 32.57, 53.11 38.58, 46.75 40.99 C40.39 43.4, 32.98 44.36, 26.09 42.91 C19.2 41.46, 9.73 36.16, 5.42 32.28 C1.11 28.4, -0.41 23.86, 0.23 19.63 C0.87 15.39, 4.5 10.24, 9.27 6.88 C14.03 3.52, 25.55 0.75, 28.81 -0.54 C32.08 -1.83, 28.74 -1.22, 28.85 -0.86" stroke="none" stroke-width="0" fill="#e7f5ff"></path><path d="M36.61 0.39 C43.47 0.4, 51.21 2.75, 56.02 6.02 C60.83 9.29, 64.76 15.51, 65.49 20.01 C66.22 24.52, 64.24 29.57, 60.41 33.03 C56.58 36.49, 49.47 39.54, 42.5 40.76 C35.54 41.98, 25.07 42.04, 18.63 40.37 C12.2 38.7, 6.87 34.87, 3.88 30.75 C0.89 26.62, -1.08 20.11, 0.69 15.61 C2.47 11.1, 7.55 6.32, 14.5 3.73 C21.46 1.14, 36.74 0.31, 42.43 0.07 C48.11 -0.17, 48.75 1.87, 48.6 2.3 M27.16 -1.05 C33.9 -2.16, 43.15 0.74, 49.17 3.34 C55.18 5.95, 60.7 10.5, 63.26 14.58 C65.82 18.66, 66.51 23.79, 64.52 27.81 C62.53 31.83, 57.23 36.56, 51.35 38.7 C45.46 40.84, 36.16 41.28, 29.21 40.66 C22.26 40.04, 14.5 38, 9.63 34.99 C4.77 31.97, 0.39 27.23, -0.01 22.58 C-0.41 17.93, 2.61 10.67, 7.24 7.09 C11.88 3.52, 24.67 1.96, 27.79 1.13 C30.91 0.29, 25.89 1.66, 25.97 2.11" stroke="#1e1e1e" stroke-width="1" fill="none"></path></g><g transform="translate(402.9259628725331 87.94733790472992) rotate(0 17.871999740600586 10)"><text x="17.871999740600586" y="14.016" font-family="Virgil, Segoe UI Emoji" font-size="16px" fill="#1e1e1e" text-anchor="middle" style="white-space: pre;" direction="ltr" dominant-baseline="alphabetic">User</text></g><g stroke-linecap="round" transform="translate(323.15290366935005 84.92856979143971) rotate(0 33 35.5)"><path d="M18.66 4.48 C23.92 1.21, 32.5 -0.92, 38.72 0.24 C44.95 1.39, 51.46 6.3, 56 11.41 C60.53 16.52, 65 24.06, 65.92 30.9 C66.84 37.74, 64.7 46.44, 61.51 52.44 C58.32 58.45, 52.49 64.01, 46.79 66.93 C41.09 69.86, 33.42 71.22, 27.32 69.98 C21.21 68.74, 14.71 64.4, 10.17 59.5 C5.64 54.61, 1.3 47.29, 0.09 40.62 C-1.12 33.96, -1.16 26.16, 2.92 19.53 C7.01 12.91, 20.35 3.95, 24.59 0.9 C28.84 -2.16, 28.25 0.44, 28.39 1.2 M23.66 3.22 C29.36 0.33, 36.17 -1.35, 42.21 0.55 C48.25 2.45, 55.9 8.71, 59.9 14.6 C63.89 20.49, 66.31 29.04, 66.19 35.9 C66.08 42.75, 63.12 50.41, 59.2 55.74 C55.27 61.07, 48.74 65.72, 42.64 67.87 C36.53 70.03, 28.5 70.37, 22.57 68.65 C16.64 66.94, 10.69 63.29, 7.08 57.59 C3.46 51.89, 1.22 41.71, 0.89 34.46 C0.56 27.2, 1.44 19.42, 5.11 14.08 C8.77 8.74, 19.69 4.46, 22.89 2.4 C26.09 0.34, 24.21 1.26, 24.29 1.73" stroke="none" stroke-width="0" fill="#e7f5ff"></path><path d="M37.91 1.4 C44.13 2, 51.97 5.86, 56.72 10.56 C61.47 15.25, 65.59 22.67, 66.43 29.58 C67.28 36.49, 64.77 45.64, 61.79 52.04 C58.82 58.44, 54.34 64.9, 48.59 67.98 C42.85 71.05, 33.73 71.76, 27.32 70.49 C20.91 69.23, 14.68 65.46, 10.13 60.38 C5.57 55.3, 1.15 47.03, -0.02 40.04 C-1.18 33.04, 0.16 24.49, 3.13 18.4 C6.1 12.31, 10.73 6.21, 17.81 3.5 C24.9 0.79, 39.74 1.35, 45.64 2.14 C51.53 2.92, 53.5 7.51, 53.19 8.2 M41.4 1.14 C47.76 2.06, 55.32 7.38, 59.62 12.53 C63.92 17.69, 66.73 25.07, 67.19 32.08 C67.64 39.09, 66.04 48.34, 62.38 54.59 C58.71 60.85, 51.47 67.18, 45.22 69.61 C38.96 72.04, 30.91 70.94, 24.84 69.16 C18.78 67.38, 13.08 63.94, 8.83 58.93 C4.57 53.92, -0.23 45.96, -0.67 39.12 C-1.12 32.28, 2.58 23.74, 6.16 17.89 C9.74 12.03, 14.88 6.83, 20.83 4 C26.78 1.16, 38.53 1.35, 41.85 0.88 C45.17 0.41, 41.21 0.63, 40.75 1.18" stroke="#1e1e1e" stroke-width="1" fill="none"></path></g><g transform="translate(338.44638014959355 100.32627905931736) rotate(0 17.871999740600586 20)"><text x="17.871999740600586" y="14.016" font-family="Virgil, Segoe UI Emoji" font-size="16px" fill="#1e1e1e" text-anchor="middle" style="white-space: pre;" direction="ltr" dominant-baseline="alphabetic">User</text><text x="17.871999740600586" y="34.016" font-family="Virgil, Segoe UI Emoji" font-size="16px" fill="#1e1e1e" text-anchor="middle" style="white-space: pre;" direction="ltr" dominant-baseline="alphabetic">Grp</text></g><g stroke-linecap="round" transform="translate(504.45344173761623 79.15533907824124) rotate(0 33 21)"><path d="M18.66 3.02 C24.45 0.96, 34.26 -0.71, 40.98 0.32 C47.69 1.35, 54.76 5.48, 58.95 9.22 C63.15 12.97, 66.62 18.35, 66.15 22.79 C65.68 27.23, 61.17 32.74, 56.1 35.85 C51.04 38.95, 42.69 41.05, 35.77 41.4 C28.85 41.74, 20.19 40.46, 14.6 37.92 C9.01 35.38, 4.2 30.35, 2.2 26.14 C0.21 21.93, -0.88 16.77, 2.64 12.66 C6.17 8.55, 18.57 3.6, 23.34 1.48 C28.11 -0.64, 31.1 -0.31, 31.27 -0.05 M44.59 2.77 C50.94 4.55, 59.78 9.17, 63.04 12.75 C66.31 16.34, 65.82 20.16, 64.2 24.29 C62.58 28.42, 58.71 34.54, 53.32 37.55 C47.93 40.55, 39.01 42.6, 31.84 42.32 C24.67 42.04, 15.64 39.17, 10.3 35.85 C4.96 32.52, 0.68 26.83, -0.21 22.39 C-1.11 17.94, 0.94 12.52, 4.94 9.17 C8.95 5.81, 16.89 3.68, 23.8 2.25 C30.72 0.82, 43.06 0.72, 46.44 0.59 C49.82 0.46, 44.43 0.86, 44.08 1.46" stroke="none" stroke-width="0" fill="#fff9db"></path><path d="M48.75 1.77 C54.79 3.5, 60.04 8.71, 62.8 13.06 C65.56 17.41, 67.33 23.64, 65.3 27.89 C63.27 32.13, 56.59 36.24, 50.63 38.54 C44.68 40.85, 36.61 42.4, 29.59 41.72 C22.57 41.04, 13.52 37.88, 8.51 34.47 C3.49 31.06, -0.11 25.67, -0.48 21.28 C-0.85 16.88, 2.02 11.67, 6.29 8.09 C10.56 4.51, 17.62 0.53, 25.12 -0.2 C32.63 -0.94, 46.85 2.81, 51.34 3.68 C55.82 4.54, 52.33 4.82, 52.02 5 M46.8 1.32 C53.34 2.5, 60.17 6.11, 63.49 10.16 C66.81 14.22, 68.43 20.88, 66.7 25.65 C64.98 30.41, 58.99 36.17, 53.14 38.77 C47.29 41.37, 38.47 41.49, 31.6 41.23 C24.74 40.98, 17.31 39.94, 11.96 37.24 C6.62 34.55, 0.51 29.45, -0.45 25.09 C-1.41 20.73, 2.28 14.86, 6.19 11.09 C10.11 7.32, 16.38 4.08, 23.06 2.46 C29.74 0.84, 42.61 1.54, 46.29 1.36 C49.96 1.18, 45.63 1.07, 45.09 1.36" stroke="#1e1e1e" stroke-width="1" fill="none"></path></g><g transform="translate(519.7469182178597 90.30609667332374) rotate(0 17.871999740600586 10)"><text x="17.871999740600586" y="14.016" font-family="Virgil, Segoe UI Emoji" font-size="16px" fill="#1e1e1e" text-anchor="middle" style="white-space: pre;" direction="ltr" dominant-baseline="alphabetic">User</text></g><g stroke-linecap="round" transform="translate(576.2529902284086 73.74106504913107) rotate(0 33 35.5)"><path d="M41.29 1.55 C47.17 2.74, 54.1 7.64, 58.23 12.98 C62.36 18.31, 65.53 26.63, 66.06 33.56 C66.59 40.49, 65.04 48.63, 61.41 54.54 C57.78 60.44, 50.63 66.36, 44.26 69 C37.88 71.65, 29.19 72.42, 23.15 70.42 C17.11 68.42, 11.99 62.53, 8.01 56.99 C4.02 51.46, -0.49 43.96, -0.77 37.21 C-1.06 30.46, 2.7 22.44, 6.31 16.5 C9.92 10.56, 14.57 3.93, 20.89 1.58 C27.22 -0.77, 40.12 2.24, 44.26 2.37 C48.41 2.51, 46.22 1.92, 45.78 2.41 M31.63 -0.66 C37.64 -1.61, 45.77 0.87, 51.15 4.81 C56.53 8.76, 61.53 16.02, 63.91 23.02 C66.3 30.02, 67.11 40.2, 65.46 46.81 C63.81 53.41, 59.47 58.71, 54.01 62.65 C48.54 66.6, 39.28 70.01, 32.68 70.48 C26.07 70.95, 19.3 69.42, 14.38 65.46 C9.46 61.5, 5.4 53.37, 3.14 46.73 C0.89 40.08, -0.88 32.27, 0.87 25.59 C2.61 18.91, 8.57 10.96, 13.61 6.66 C18.66 2.36, 28.05 0.63, 31.13 -0.22 C34.21 -1.08, 31.89 0.7, 32.1 1.52" stroke="none" stroke-width="0" fill="#fff9db"></path><path d="M25.56 1.89 C31.42 -0.27, 38.81 0.04, 44.79 2.46 C50.77 4.88, 57.98 10.65, 61.44 16.39 C64.89 22.13, 66.12 30.07, 65.53 36.89 C64.94 43.71, 61.99 51.85, 57.87 57.3 C53.76 62.75, 47.09 67.85, 40.85 69.59 C34.61 71.33, 26.28 70.2, 20.42 67.74 C14.57 65.29, 9.26 60.59, 5.71 54.87 C2.15 49.14, -1.29 40.47, -0.9 33.41 C-0.5 26.35, 2.55 18.03, 8.1 12.5 C13.65 6.97, 27.36 1.96, 32.41 0.22 C37.46 -1.53, 38.54 1.33, 38.4 2.03 M21.24 3.47 C26.57 0.52, 35.14 -1.26, 41.58 0.49 C48.03 2.23, 55.96 8.2, 59.9 13.96 C63.83 19.71, 64.91 27.98, 65.21 35.03 C65.51 42.08, 65.1 50.39, 61.7 56.24 C58.3 62.09, 50.91 67.92, 44.81 70.14 C38.71 72.36, 31.39 71.71, 25.11 69.55 C18.82 67.39, 11.48 62.61, 7.09 57.16 C2.71 51.72, -0.93 43.63, -1.21 36.89 C-1.49 30.15, 1.9 22.38, 5.42 16.71 C8.94 11.05, 17.36 5.14, 19.9 2.87 C22.43 0.61, 19.97 2.68, 20.62 3.13" stroke="#1e1e1e" stroke-width="1" fill="none"></path></g><g transform="translate(591.5464667086521 89.13877431700871) rotate(0 17.871999740600586 20)"><text x="17.871999740600586" y="14.016" font-family="Virgil, Segoe UI Emoji" font-size="16px" fill="#1e1e1e" text-anchor="middle" style="white-space: pre;" direction="ltr" dominant-baseline="alphabetic">User</text><text x="17.871999740600586" y="34.016" font-family="Virgil, Segoe UI Emoji" font-size="16px" fill="#1e1e1e" text-anchor="middle" style="white-space: pre;" direction="ltr" dominant-baseline="alphabetic">Grp</text></g><g stroke-linecap="round" transform="translate(501.06241262810863 205.61627244924284) rotate(0 23 18.5)"><path d="M9.25 0 C18.62 -1.19, 24.75 -1.28, 36.75 0 C39.54 -0.43, 44.58 5.01, 46 9.25 C43.47 15.23, 46.28 24.99, 46 27.75 C48.97 32.33, 41.77 37.32, 36.75 37 C26.59 36.65, 19.49 37.17, 9.25 37 C5.85 40.42, 1.67 31.83, 0 27.75 C-0.29 20.2, 2.35 13.58, 0 9.25 C1.91 2.67, 5.52 0.57, 9.25 0" stroke="none" stroke-width="0" fill="#fff9db"></path><path d="M9.25 0 C17.57 1.49, 22.22 -0.18, 36.75 0 M9.25 0 C18.13 -0.42, 27.92 -0.21, 36.75 0 M36.75 0 C42.31 -0.78, 44.5 4.27, 46 9.25 M36.75 0 C43.79 -2.22, 46.41 4.23, 46 9.25 M46 9.25 C46.2 15.72, 45.82 20.66, 46 27.75 M46 9.25 C46.17 14.16, 46.16 17.2, 46 27.75 M46 27.75 C47.59 34.88, 41.92 38.72, 36.75 37 M46 27.75 C47.64 35.95, 43.01 39.25, 36.75 37 M36.75 37 C26.35 35.3, 17.06 37.03, 9.25 37 M36.75 37 C26.77 37.19, 18.86 37.06, 9.25 37 M9.25 37 C2.46 35.47, 1.09 34.38, 0 27.75 M9.25 37 C3.78 35.6, 0.55 32.43, 0 27.75 M0 27.75 C1.72 21.94, -0.43 18.87, 0 9.25 M0 27.75 C-0.63 23.23, 0.1 20.91, 0 9.25 M0 9.25 C1.32 1.83, 1.8 1.59, 9.25 0 M0 9.25 C1.24 5.38, 1.49 -1.85, 9.25 0" stroke="#1e1e1e" stroke-width="1" fill="none"></path></g><g transform="translate(513.0304130400959 214.11627244924284) rotate(0 11.031999588012695 10)"><text x="11.031999588012695" y="14.016" font-family="Virgil, Segoe UI Emoji" font-size="16px" fill="#1e1e1e" text-anchor="middle" style="white-space: pre;" direction="ltr" dominant-baseline="alphabetic">api</text></g><g stroke-linecap="round" transform="translate(554.0624126281086 204.11627244924284) rotate(0 23 18.5)"><path d="M9.25 0 C13.27 -0.26, 22.62 2.1, 36.75 0 C45.95 2.13, 43.63 0.14, 46 9.25 C48.76 12.71, 44.94 19.4, 46 27.75 C47.76 32.24, 40.59 36.44, 36.75 37 C31.29 40.48, 21.97 34.98, 9.25 37 C4.42 36.19, -2.95 33.52, 0 27.75 C1.54 22.55, 2.03 18.64, 0 9.25 C-1.35 3.35, 5.1 3.24, 9.25 0" stroke="none" stroke-width="0" fill="#fff9db"></path><path d="M9.25 0 C20.76 -0.24, 29.27 -1.75, 36.75 0 M9.25 0 C15.75 -0.3, 22.1 0.68, 36.75 0 M36.75 0 C43.68 -1.93, 46.36 4.08, 46 9.25 M36.75 0 C42.14 1.79, 46.43 3.15, 46 9.25 M46 9.25 C44.62 18.15, 46.16 23.42, 46 27.75 M46 9.25 C46.73 16.65, 45.54 23.96, 46 27.75 M46 27.75 C47.43 35.68, 43 38.96, 36.75 37 M46 27.75 C47.12 33.59, 42.6 36.07, 36.75 37 M36.75 37 C31.62 35.2, 25.55 35.85, 9.25 37 M36.75 37 C27.93 36.22, 20.27 37.22, 9.25 37 M9.25 37 C3.69 35.78, 0.48 32.63, 0 27.75 M9.25 37 C1.96 37.19, -1.09 36.07, 0 27.75 M0 27.75 C-1.73 24.72, 1.67 17.98, 0 9.25 M0 27.75 C0.56 23.1, -0.64 20.34, 0 9.25 M0 9.25 C1.08 5.08, 1.7 -1.61, 9.25 0 M0 9.25 C0.25 2.96, 3.38 0.52, 9.25 0" stroke="#1e1e1e" stroke-width="1" fill="none"></path></g><g transform="translate(566.0304130400959 212.61627244924284) rotate(0 11.031999588012695 10)"><text x="11.031999588012695" y="14.016" font-family="Virgil, Segoe UI Emoji" font-size="16px" fill="#1e1e1e" text-anchor="middle" style="white-space: pre;" direction="ltr" dominant-baseline="alphabetic">api</text></g><g stroke-linecap="round" transform="translate(311.48038167450295 226.8154986090999) rotate(0 23 18.5)"><path d="M9.25 0 C20.21 1.86, 22.72 -3.21, 36.75 0 C41.7 0.09, 47.64 6.05, 46 9.25 C47.52 12.43, 43.74 18.2, 46 27.75 C45.97 35.84, 43.41 39.77, 36.75 37 C27.23 35.91, 12.08 36.32, 9.25 37 C1.67 39.46, -1.84 35.83, 0 27.75 C-1.47 22.66, 1.64 20.07, 0 9.25 C-0.91 1.25, 2.85 -2.22, 9.25 0" stroke="none" stroke-width="0" fill="#e7f5ff"></path><path d="M9.25 0 C16.1 -1.48, 24.42 -0.37, 36.75 0 M9.25 0 C16.81 -1.13, 23.78 0.33, 36.75 0 M36.75 0 C42.24 1.56, 46.37 3.14, 46 9.25 M36.75 0 C44.84 -0.4, 47.93 1.41, 46 9.25 M46 9.25 C47.43 16.56, 45.1 25.44, 46 27.75 M46 9.25 C46.57 16.51, 45.95 23.05, 46 27.75 M46 27.75 C46.98 33.63, 42.64 36.2, 36.75 37 M46 27.75 C44.09 33.34, 42.99 37.96, 36.75 37 M36.75 37 C31.18 38.66, 25.14 36.22, 9.25 37 M36.75 37 C30.91 36.46, 24.71 36.42, 9.25 37 M9.25 37 C2.1 37.17, -0.95 35.79, 0 27.75 M9.25 37 C1.64 36.48, 0.51 31.72, 0 27.75 M0 27.75 C-1.64 21.3, 1.28 15.15, 0 9.25 M0 27.75 C0.62 24.28, -0.52 18.22, 0 9.25 M0 9.25 C0.22 2.97, 3.34 0.45, 9.25 0 M0 9.25 C-0.72 2.05, 2.31 -2.16, 9.25 0" stroke="#1e1e1e" stroke-width="1" fill="none"></path></g><g transform="translate(323.44838208649026 235.3154986090999) rotate(0 11.031999588012695 10)"><text x="11.031999588012695" y="14.016" font-family="Virgil, Segoe UI Emoji" font-size="16px" fill="#1e1e1e" text-anchor="middle" style="white-space: pre;" direction="ltr" dominant-baseline="alphabetic">api</text></g><g stroke-linecap="round" transform="translate(369.07022690647455 228.98737479467718) rotate(0 23 18.5)"><path d="M9.25 0 C17.91 0.5, 30.64 3.38, 36.75 0 C41.33 -1.15, 46.32 4.84, 46 9.25 C45.75 15.71, 46.24 21.18, 46 27.75 C49.42 35.59, 40.83 38.33, 36.75 37 C27.7 39.4, 19.64 38.86, 9.25 37 C2.67 39.44, 0.57 32.57, 0 27.75 C-1.03 20.36, -0.4 14.32, 0 9.25 C2.78 6.32, 3.8 0.83, 9.25 0" stroke="none" stroke-width="0" fill="#e7f5ff"></path><path d="M9.25 0 C14.35 -1.41, 22.2 0.84, 36.75 0 M9.25 0 C14.51 0.64, 20.63 -0.11, 36.75 0 M36.75 0 C44.59 -0.35, 47.68 1.63, 46 9.25 M36.75 0 C45.16 0.24, 45.98 4.83, 46 9.25 M46 9.25 C46.8 13.83, 47.5 21.57, 46 27.75 M46 9.25 C46.46 16.3, 45.88 23.25, 46 27.75 M46 27.75 C44.34 33.42, 42.98 37.84, 36.75 37 M46 27.75 C43.92 34.76, 41.59 37.22, 36.75 37 M36.75 37 C24.47 38.01, 15.72 37.52, 9.25 37 M36.75 37 C29.68 36.91, 23.12 37.76, 9.25 37 M9.25 37 C1.83 36.55, 0.45 32.01, 0 27.75 M9.25 37 C4.78 39.03, -1.24 32.08, 0 27.75 M0 27.75 C-1.3 20.55, 1.32 16.72, 0 9.25 M0 27.75 C0.23 20.31, 0.25 13.17, 0 9.25 M0 9.25 C-0.62 2.19, 2.41 -1.88, 9.25 0 M0 9.25 C-0.28 2.18, 4.32 1.94, 9.25 0" stroke="#1e1e1e" stroke-width="1" fill="none"></path></g><g transform="translate(381.03822731846185 237.48737479467718) rotate(0 11.031999588012695 10)"><text x="11.031999588012695" y="14.016" font-family="Virgil, Segoe UI Emoji" font-size="16px" fill="#1e1e1e" text-anchor="middle" style="white-space: pre;" direction="ltr" dominant-baseline="alphabetic">api</text></g><g transform="translate(281.62347731341606 357.9645011589603) rotate(0 52.1199951171875 12.5)"><text x="0" y="17.52" font-family="Virgil, Segoe UI Emoji" font-size="20px" fill="#1e1e1e" text-anchor="start" style="white-space: pre;" direction="ltr" dominant-baseline="alphabetic">Dashboard</text></g><g transform="translate(567.4955320005602 493.3879942109379) rotate(0 53.35000228881836 12.5)"><text x="0" y="17.52" font-family="Virgil, Segoe UI Emoji" font-size="20px" fill="#1e1e1e" text-anchor="start" style="white-space: pre;" direction="ltr" dominant-baseline="alphabetic">Kubernetes</text></g><g stroke-linecap="round" transform="translate(258.915977078133 472.08728881625393) rotate(0 217.5 306.73953946262077)"><path d="M32 0 C150.89 1, 267.89 1.79, 403 0 M32 0 C137.39 1.72, 241.57 2.13, 403 0 M403 0 C424.28 -1, 436.59 11.63, 435 32 M403 0 C423.19 1.98, 436.64 12.7, 435 32 M435 32 C437.04 199, 436.83 365.56, 435 581.48 M435 32 C434.71 183.22, 434.84 334.18, 435 581.48 M435 581.48 C436.82 602.73, 423.71 611.94, 403 613.48 M435 581.48 C436.26 603.35, 425.03 612.08, 403 613.48 M403 613.48 C282.86 611.78, 163.67 611.59, 32 613.48 M403 613.48 C300.53 611.84, 196.83 610.81, 32 613.48 M32 613.48 C11.17 615.04, 1.32 601.56, 0 581.48 M32 613.48 C9.2 615.3, 1.24 605.11, 0 581.48 M0 581.48 C1.72 454.78, 1.94 327.63, 0 32 M0 581.48 C0.7 441.05, 0.96 301.27, 0 32 M0 32 C1.18 9.35, 9.03 -0.68, 32 0 M0 32 C0.06 11.71, 12.57 -1.01, 32 0" stroke="#1e1e1e" stroke-width="2" fill="none"></path></g><g stroke-linecap="round" transform="translate(298.94908886146595 821.3820632556854) rotate(0 85 115.5)"><path d="M32 0 C60.3 1.47, 88.13 1.48, 138 0 M138 0 C157.88 1.95, 170.2 10.64, 170 32 M170 32 C171.55 95.77, 168.96 159.33, 170 199 M170 199 C171.43 222.1, 159.42 232.96, 138 231 M138 231 C100.21 229.19, 63.53 230.92, 32 231 M32 231 C11.5 229.19, 0.73 219.18, 0 199 M0 199 C-2.14 145.78, -0.43 96.1, 0 32 M0 32 C0.6 9.45, 11.15 -1.29, 32 0" stroke="#1e1e1e" stroke-width="2.5" fill="none" stroke-dasharray="1.5 8"></path></g><g stroke-linecap="round" transform="translate(487.32057238575635 828.0338410919967) rotate(0 85 115.5)"><path d="M32 0 C65.43 0.79, 98.11 1.07, 138 0 M138 0 C159.54 -0.02, 171.52 10.61, 170 32 M170 32 C170.34 75.5, 172.76 117.32, 170 199 M170 199 C170.08 222.29, 160.31 230.71, 138 231 M138 231 C107.17 230.18, 78.18 228.31, 32 231 M32 231 C11.4 229.84, 0.19 222.15, 0 199 M0 199 C1.61 150.09, 1.12 99.03, 0 32 M0 32 C0.48 9.38, 9.69 0.17, 32 0" stroke="#1e1e1e" stroke-width="2.5" fill="none" stroke-dasharray="1.5 8"></path></g><g transform="translate(519.7212498343447 1028.0564118805528) rotate(0 50.65999984741211 12.5)"><text x="0" y="17.52" font-family="Virgil, Segoe UI Emoji" font-size="20px" fill="#1e1e1e" text-anchor="start" style="white-space: pre;" direction="ltr" dominant-baseline="alphabetic">namespace</text></g><g transform="translate(333.04067893371484 1021.3719602064107) rotate(0 50.65999984741211 12.5)"><text x="0" y="17.52" font-family="Virgil, Segoe UI Emoji" font-size="20px" fill="#1e1e1e" text-anchor="start" style="white-space: pre;" direction="ltr" dominant-baseline="alphabetic">namespace</text></g><g stroke-linecap="round" transform="translate(421.39859879736923 521.7672208043141) rotate(0 53.61892758951285 37)"><path d="M18.5 0 C47.95 -0.05, 73.37 1.6, 88.74 0 M18.5 0 C43.68 0.28, 67.48 0.37, 88.74 0 M88.74 0 C102.05 -0.29, 106.96 5.36, 107.24 18.5 M88.74 0 C99.16 -0.58, 107.31 7.13, 107.24 18.5 M107.24 18.5 C107.56 28.07, 107.29 33.38, 107.24 55.5 M107.24 18.5 C107.74 26.15, 107.68 34.38, 107.24 55.5 M107.24 55.5 C106.26 68, 100.12 75.87, 88.74 74 M107.24 55.5 C105.79 67.31, 101.58 71.8, 88.74 74 M88.74 74 C60.9 74.12, 37.82 74.94, 18.5 74 M88.74 74 C72.6 75.55, 54.68 73.75, 18.5 74 M18.5 74 C6.39 73.89, 0.26 68.28, 0 55.5 M18.5 74 C5.45 72.97, -0.78 65.68, 0 55.5 M0 55.5 C1.83 46.03, -1.17 32.55, 0 18.5 M0 55.5 C0.82 45.21, -0.33 35.89, 0 18.5 M0 18.5 C0.98 5.23, 4.87 -0.31, 18.5 0 M0 18.5 C-0.02 7.39, 6.48 1.77, 18.5 0" stroke="#1e1e1e" stroke-width="2" fill="none"></path></g><g transform="translate(430.89752745499754 533.7672208043141) rotate(0 44.119998931884766 25)"><text x="44.119998931884766" y="17.52" font-family="Virgil, Segoe UI Emoji" font-size="20px" fill="#1e1e1e" text-anchor="middle" style="white-space: pre;" direction="ltr" dominant-baseline="alphabetic">Tyk </text><text x="44.119998931884766" y="42.519999999999996" font-family="Virgil, Segoe UI Emoji" font-size="20px" fill="#1e1e1e" text-anchor="middle" style="white-space: pre;" direction="ltr" dominant-baseline="alphabetic">Operator</text></g><g stroke-linecap="round" transform="translate(337.2550416671643 893.2193023013147) rotate(0 23 25)"><path d="M11.5 0 C16.47 2.5, 22.44 1.96, 34.5 0 C41.76 2.44, 46.57 2.48, 46 11.5 C45.36 17.96, 46.04 25.88, 46 38.5 C48.78 49.41, 42.88 50.83, 34.5 50 C25.65 48.05, 16.9 49.7, 11.5 50 C4.8 51.65, -1.41 47.09, 0 38.5 C3.19 25.72, -1.02 21.83, 0 11.5 C-1.6 5.28, 4.73 -1.76, 11.5 0" stroke="none" stroke-width="0" fill="#e7f5ff"></path><path d="M11.5 0 C19.31 -1.18, 26.9 1.24, 34.5 0 M11.5 0 C20.92 -0.37, 29.23 -0.63, 34.5 0 M34.5 0 C40.5 -0.5, 46.06 4.67, 46 11.5 M34.5 0 C40.08 0.84, 44.67 4.05, 46 11.5 M46 11.5 C44.45 23.14, 46.45 33.21, 46 38.5 M46 11.5 C45.58 18.04, 45.59 25.35, 46 38.5 M46 38.5 C44.74 45.71, 42.61 48.09, 34.5 50 M46 38.5 C47.69 48.2, 40.93 48.16, 34.5 50 M34.5 50 C25.77 48.87, 21.13 51.23, 11.5 50 M34.5 50 C25.42 49.76, 16.24 50.04, 11.5 50 M11.5 50 C3.21 49.11, -0.68 44.29, 0 38.5 M11.5 50 C3.56 49.09, 1.23 48.11, 0 38.5 M0 38.5 C-0.5 28.85, 1.09 20.76, 0 11.5 M0 38.5 C0.57 31.12, -0.56 24.52, 0 11.5 M0 11.5 C-0.02 4.9, 4.11 1.54, 11.5 0 M0 11.5 C2.18 4.9, 2.5 0.85, 11.5 0" stroke="#1e1e1e" stroke-width="1" fill="none"></path></g><g transform="translate(343.43904168242307 898.2193023013147) rotate(0 16.81599998474121 20)"><text x="16.81599998474121" y="14.016" font-family="Virgil, Segoe UI Emoji" font-size="16px" fill="#1e1e1e" text-anchor="middle" style="white-space: pre;" direction="ltr" dominant-baseline="alphabetic">api</text><text x="16.81599998474121" y="34.016" font-family="Virgil, Segoe UI Emoji" font-size="16px" fill="#1e1e1e" text-anchor="middle" style="white-space: pre;" direction="ltr" dominant-baseline="alphabetic">CRD</text></g><g stroke-linecap="round" transform="translate(393.4155619958042 892.7478377787525) rotate(0 23 25)"><path d="M11.5 0 C19.56 2.21, 29.01 -1.57, 34.5 0 C42.44 2.02, 49.24 2.92, 46 11.5 C48.75 21.46, 46.69 25.77, 46 38.5 C49.13 44.48, 40.54 50.06, 34.5 50 C29.69 51.64, 21.54 50.91, 11.5 50 C5.52 52.8, 2.76 49.73, 0 38.5 C-1.51 34.41, 0.98 25.67, 0 11.5 C-3.13 3.34, 0.27 1.88, 11.5 0" stroke="none" stroke-width="0" fill="#e7f5ff"></path><path d="M11.5 0 C19.02 -0.08, 24.97 0.81, 34.5 0 M11.5 0 C17.24 -0.16, 24.67 0.51, 34.5 0 M34.5 0 C40.36 0.73, 44.84 4.02, 46 11.5 M34.5 0 C44.26 -0.1, 45.29 2.07, 46 11.5 M46 11.5 C44.85 21.56, 44.77 29.67, 46 38.5 M46 11.5 C45.24 19.6, 46.09 27.19, 46 38.5 M46 38.5 C47.47 47.93, 41.09 48.4, 34.5 50 M46 38.5 C46.58 47.96, 43.69 48.56, 34.5 50 M34.5 50 C31.06 48.74, 22.04 50.35, 11.5 50 M34.5 50 C27.41 49.6, 20.61 49.11, 11.5 50 M11.5 50 C3.59 49.21, 1.07 47.85, 0 38.5 M11.5 50 C5.19 48.49, -1.88 45.39, 0 38.5 M0 38.5 C-1 29.69, 0.06 23.14, 0 11.5 M0 38.5 C0.17 32.19, 0.31 25.59, 0 11.5 M0 11.5 C1.9 4.76, 2.67 0.74, 11.5 0 M0 11.5 C-0.51 1.95, 3.58 -0.91, 11.5 0" stroke="#1e1e1e" stroke-width="1" fill="none"></path></g><g transform="translate(399.59956201106297 897.7478377787525) rotate(0 16.81599998474121 20)"><text x="16.81599998474121" y="14.016" font-family="Virgil, Segoe UI Emoji" font-size="16px" fill="#1e1e1e" text-anchor="middle" style="white-space: pre;" direction="ltr" dominant-baseline="alphabetic">api</text><text x="16.81599998474121" y="34.016" font-family="Virgil, Segoe UI Emoji" font-size="16px" fill="#1e1e1e" text-anchor="middle" style="white-space: pre;" direction="ltr" dominant-baseline="alphabetic">CRD</text></g><g stroke-linecap="round" transform="translate(298.84723953872026 671.4937481829229) rotate(0 51.15258973757341 25)"><path d="M12.5 0 C41.19 2.54, 72.58 -0.39, 89.81 0 C96.3 -0.23, 100.08 6.94, 102.31 12.5 C105.53 20.56, 100.76 32.06, 102.31 37.5 C100.55 46.04, 98.03 50.96, 89.81 50 C64.75 53.15, 39.08 53.92, 12.5 50 C0.75 49.36, 2.06 44.23, 0 37.5 C-3.24 28.51, -3.67 22.37, 0 12.5 C-1.11 6.8, 5.46 0.02, 12.5 0" stroke="none" stroke-width="0" fill="#e7f5ff"></path><path d="M12.5 0 C35.72 -0.66, 58.72 -2.04, 89.81 0 M12.5 0 C32.85 0.04, 54.43 -0.23, 89.81 0 M89.81 0 C99.96 -0.09, 101.69 2.63, 102.31 12.5 M89.81 0 C99.39 0.54, 103 2.77, 102.31 12.5 M102.31 12.5 C102.31 19.65, 104.02 27.45, 102.31 37.5 M102.31 12.5 C103.1 20.32, 101.82 25.57, 102.31 37.5 M102.31 37.5 C102.81 47.39, 99.46 48.75, 89.81 50 M102.31 37.5 C100.83 47.66, 99.38 52.29, 89.81 50 M89.81 50 C71.86 50.34, 54.58 49.46, 12.5 50 M89.81 50 C69.95 48.88, 50.87 50.12, 12.5 50 M12.5 50 C5.35 48.68, -1.64 45.16, 0 37.5 M12.5 50 C4.23 51.05, 1.9 44.82, 0 37.5 M0 37.5 C-0.96 29.5, -0.34 24.08, 0 12.5 M0 37.5 C0.91 29.13, -0.61 20.2, 0 12.5 M0 12.5 C-0.45 2.53, 3.95 -0.79, 12.5 0 M0 12.5 C1.57 2.99, 5.39 -0.26, 12.5 0" stroke="#1e1e1e" stroke-width="1" fill="none"></path></g><g transform="translate(310.70382784196727 676.4937481829229) rotate(0 39.29600143432617 20)"><text x="39.29600143432617" y="14.016" font-family="Virgil, Segoe UI Emoji" font-size="16px" fill="#1e1e1e" text-anchor="middle" style="white-space: pre;" direction="ltr" dominant-baseline="alphabetic">Operator </text><text x="39.29600143432617" y="34.016" font-family="Virgil, Segoe UI Emoji" font-size="16px" fill="#1e1e1e" text-anchor="middle" style="white-space: pre;" direction="ltr" dominant-baseline="alphabetic">Context 1</text></g><g stroke-linecap="round" transform="translate(534.9501149777625 885.3931447009759) rotate(0 23 25)"><path d="M11.5 0 C17.85 -0.13, 25.66 2.88, 34.5 0 C45.41 0.72, 46.83 6.97, 46 11.5 C44.02 18.53, 45.67 26.13, 46 38.5 C47.65 44.76, 43.09 51.68, 34.5 50 C22.39 49.77, 19.19 48.81, 11.5 50 C5.28 50.89, -1.76 43.04, 0 38.5 C-0.63 33.4, 1.77 23.06, 0 11.5 C-3.57 1.12, 6.85 2.91, 11.5 0" stroke="none" stroke-width="0" fill="#fff9db"></path><path d="M11.5 0 C17.58 0.26, 25.5 -1.62, 34.5 0 M11.5 0 C20.15 -0.07, 26.67 -0.79, 34.5 0 M34.5 0 C43.26 0.47, 46.6 2.62, 46 11.5 M34.5 0 C42.72 -1.48, 44.87 4.02, 46 11.5 M46 11.5 C45.8 18.76, 44.34 26.6, 46 38.5 M46 11.5 C46.11 22.76, 46.52 31.84, 46 38.5 M46 38.5 C44.72 47.75, 43.24 51.99, 34.5 50 M46 38.5 C44.41 44.32, 42.42 49.87, 34.5 50 M34.5 50 C26.41 49.25, 18.23 49.69, 11.5 50 M34.5 50 C29.1 49.54, 21.7 49.86, 11.5 50 M11.5 50 C3.88 50.91, 1.65 45.28, 0 38.5 M11.5 50 C3.1 50.21, 1.12 45.09, 0 38.5 M0 38.5 C1.11 32.42, 1.58 27.69, 0 11.5 M0 38.5 C-0.07 28.33, 0.05 19.4, 0 11.5 M0 11.5 C1.37 2.81, 4.9 -0.23, 11.5 0 M0 11.5 C1.56 4.2, 2.97 0.17, 11.5 0" stroke="#1e1e1e" stroke-width="1" fill="none"></path></g><g transform="translate(541.1341149930213 890.3931447009759) rotate(0 16.81599998474121 20)"><text x="16.81599998474121" y="14.016" font-family="Virgil, Segoe UI Emoji" font-size="16px" fill="#1e1e1e" text-anchor="middle" style="white-space: pre;" direction="ltr" dominant-baseline="alphabetic">api</text><text x="16.81599998474121" y="34.016" font-family="Virgil, Segoe UI Emoji" font-size="16px" fill="#1e1e1e" text-anchor="middle" style="white-space: pre;" direction="ltr" dominant-baseline="alphabetic">CRD</text></g><g stroke-linecap="round" transform="translate(587.4088245557741 876.5926059895014) rotate(0 23 25)"><path d="M11.5 0 C21.49 0.4, 25.83 2.81, 34.5 0 C40.48 -1.63, 46.06 2.07, 46 11.5 C47.64 18.34, 46.91 29.69, 46 38.5 C48.8 48.93, 45.73 46.58, 34.5 50 C29.46 50.71, 19.76 46.68, 11.5 50 C3.34 46.44, 1.88 45.05, 0 38.5 C-3.74 25.72, 2.84 21.27, 0 11.5 C-1.24 2.44, 4.88 -2.76, 11.5 0" stroke="none" stroke-width="0" fill="#fff9db"></path><path d="M11.5 0 C19.2 -0.95, 25.64 2.02, 34.5 0 M11.5 0 C18.85 0.41, 25.4 -0.43, 34.5 0 M34.5 0 C42.65 -1.29, 45.02 4, 46 11.5 M34.5 0 C41.07 2.15, 44.55 3.31, 46 11.5 M46 11.5 C47.51 19.12, 44.14 29.4, 46 38.5 M46 11.5 C45.54 22.5, 46.72 32.91, 46 38.5 M46 38.5 C44.62 44.56, 42.39 49.89, 34.5 50 M46 38.5 C46.3 46.69, 41.45 48.97, 34.5 50 M34.5 50 C27.59 51.05, 23.94 51.16, 11.5 50 M34.5 50 C29.14 50.38, 24.55 49.48, 11.5 50 M11.5 50 C3.19 50.18, 0.98 45.23, 0 38.5 M11.5 50 C2.35 49.64, -0.02 47.39, 0 38.5 M0 38.5 C0.72 28.87, 0.53 21.12, 0 11.5 M0 38.5 C0.71 32.11, 0.56 26.62, 0 11.5 M0 11.5 C1.35 4.15, 3.08 0.15, 11.5 0 M0 11.5 C1.29 5.9, 3.25 -1.17, 11.5 0" stroke="#1e1e1e" stroke-width="1" fill="none"></path></g><g transform="translate(593.5928245710329 881.5926059895014) rotate(0 16.81599998474121 20)"><text x="16.81599998474121" y="14.016" font-family="Virgil, Segoe UI Emoji" font-size="16px" fill="#1e1e1e" text-anchor="middle" style="white-space: pre;" direction="ltr" dominant-baseline="alphabetic">api</text><text x="16.81599998474121" y="34.016" font-family="Virgil, Segoe UI Emoji" font-size="16px" fill="#1e1e1e" text-anchor="middle" style="white-space: pre;" direction="ltr" dominant-baseline="alphabetic">CRD</text></g><g stroke-linecap="round" transform="translate(529.7957157763744 647.4794416561153) rotate(0 57.92346575040756 25)"><path d="M12.5 0 C39.87 -3.05, 70.69 -3.18, 103.35 0 C111.88 -0.11, 116.81 5.82, 115.85 12.5 C118.76 21.78, 119.53 22.12, 115.85 37.5 C115.2 47.89, 110.08 51.45, 103.35 50 C73.35 45.02, 46.21 47.46, 12.5 50 C6.8 51.29, 0.02 42.27, 0 37.5 C-1.62 30.49, 0.67 23.5, 0 12.5 C-0.02 7.71, 7.25 0.11, 12.5 0" stroke="none" stroke-width="0" fill="#fff9db"></path><path d="M12.5 0 C34.41 -1.44, 54.95 0.27, 103.35 0 M12.5 0 C42.11 -0.09, 70.76 0.64, 103.35 0 M103.35 0 C110.73 1.87, 114.59 3.71, 115.85 12.5 M103.35 0 C112.19 -2.2, 117.54 6.2, 115.85 12.5 M115.85 12.5 C117.21 19.97, 114.4 23.53, 115.85 37.5 M115.85 12.5 C115.29 21.18, 116.09 31.41, 115.85 37.5 M115.85 37.5 C116.11 46.28, 111.06 49.11, 103.35 50 M115.85 37.5 C115.07 43.68, 111.4 49.09, 103.35 50 M103.35 50 C69.9 48.9, 38.42 50.59, 12.5 50 M103.35 50 C71.64 49.69, 41.06 49.13, 12.5 50 M12.5 50 C2.87 49.69, -0.02 46.9, 0 37.5 M12.5 50 C4.48 51.77, 2.18 46.9, 0 37.5 M0 37.5 C-1.73 31.23, -0.88 26.77, 0 12.5 M0 37.5 C0.54 31.43, -0.51 25.12, 0 12.5 M0 12.5 C1.12 5.97, 3.66 -1.02, 12.5 0 M0 12.5 C-0.15 2.75, 5.94 2.07, 12.5 0" stroke="#1e1e1e" stroke-width="1" fill="none"></path></g><g transform="translate(546.7911801229734 652.4794416561153) rotate(0 40.928001403808594 20)"><text x="40.928001403808594" y="14.016" font-family="Virgil, Segoe UI Emoji" font-size="16px" fill="#1e1e1e" text-anchor="middle" style="white-space: pre;" direction="ltr" dominant-baseline="alphabetic">Operator </text><text x="40.928001403808594" y="34.016" font-family="Virgil, Segoe UI Emoji" font-size="16px" fill="#1e1e1e" text-anchor="middle" style="white-space: pre;" direction="ltr" dominant-baseline="alphabetic">Context 2</text></g><g stroke-linecap="round" transform="translate(44.73973219901609 860.2882048450997) rotate(0 12 9)"><path d="M15.01 0.14 C17.31 0.5, 19.78 1.98, 21.25 3.6 C22.71 5.23, 23.91 7.93, 23.78 9.91 C23.64 11.88, 22.19 14.08, 20.44 15.47 C18.69 16.87, 15.78 18.14, 13.28 18.28 C10.78 18.42, 7.57 17.39, 5.44 16.31 C3.31 15.23, 1.19 13.66, 0.53 11.82 C-0.14 9.98, 0.47 7.09, 1.45 5.27 C2.43 3.45, 4.12 1.66, 6.41 0.91 C8.7 0.16, 13.51 0.79, 15.2 0.78 C16.89 0.77, 16.53 0.68, 16.54 0.83 M10.23 0.1 C12.69 -0.19, 16.29 0.67, 18.56 1.68 C20.83 2.68, 23.06 4.24, 23.84 6.12 C24.61 7.99, 24.19 10.99, 23.22 12.91 C22.24 14.82, 20.18 16.92, 17.98 17.61 C15.78 18.3, 12.61 17.51, 9.99 17.05 C7.37 16.58, 3.97 16.19, 2.25 14.81 C0.53 13.44, -0.51 10.85, -0.31 8.79 C-0.11 6.73, 1.74 3.94, 3.45 2.46 C5.16 0.99, 8.87 0.27, 9.94 -0.04 C11.01 -0.34, 9.79 0.38, 9.88 0.63" stroke="none" stroke-width="0" fill="#a5d8ff"></path><path d="M12.58 -0.22 C15.09 -0.26, 18.45 0.99, 20.43 2.32 C22.4 3.66, 24.18 5.82, 24.41 7.79 C24.64 9.77, 23.41 12.48, 21.8 14.19 C20.19 15.89, 17.15 17.58, 14.77 18.03 C12.38 18.49, 9.83 17.77, 7.5 16.93 C5.17 16.1, 1.91 14.66, 0.79 13.03 C-0.34 11.39, 0.11 9.05, 0.76 7.1 C1.41 5.16, 2.49 2.5, 4.69 1.37 C6.88 0.24, 12.28 0.58, 13.93 0.34 C15.59 0.11, 14.78 -0.13, 14.62 -0.02 M11.6 -0.33 C13.98 -0.62, 17.32 0.1, 19.33 1.32 C21.35 2.55, 23.11 4.9, 23.7 7.02 C24.29 9.14, 24.04 12.38, 22.88 14.03 C21.71 15.68, 19.28 16.38, 16.7 16.92 C14.13 17.46, 9.94 17.74, 7.44 17.24 C4.94 16.75, 2.82 15.62, 1.71 13.95 C0.6 12.28, 0.41 9.18, 0.77 7.23 C1.14 5.28, 2.02 3.52, 3.92 2.25 C5.83 0.99, 10.96 0.02, 12.2 -0.35 C13.44 -0.71, 11.41 -0.21, 11.35 0.06" stroke="#1e1e1e" stroke-width="2" fill="none"></path></g><g stroke-linecap="round" transform="translate(24.493968902332654 880.2882048450997) rotate(0 28.622881648341718 21)"><path d="M19.61 0.77 C24.96 -0.56, 33.9 0.51, 39.58 2.41 C45.27 4.3, 50.9 8.1, 53.7 12.12 C56.5 16.14, 57.66 22.31, 56.36 26.53 C55.05 30.76, 50.75 34.81, 45.86 37.48 C40.97 40.14, 33.01 42.77, 27.01 42.52 C21.02 42.28, 14.42 39.21, 9.87 36.01 C5.31 32.82, 0.64 27.66, -0.32 23.36 C-1.28 19.06, -0.73 14.08, 4.1 10.22 C8.94 6.36, 23.49 1.61, 28.68 0.21 C33.88 -1.19, 35.5 1.6, 35.29 1.84 M28.8 0.4 C34.87 0.06, 43.14 1.46, 47.88 4.43 C52.62 7.4, 56.14 13.49, 57.23 18.22 C58.33 22.94, 57.39 29.27, 54.46 32.79 C51.54 36.32, 45.7 37.91, 39.69 39.36 C33.67 40.82, 24.46 42.77, 18.35 41.54 C12.25 40.3, 5.97 36.14, 3.06 31.96 C0.14 27.78, -0.16 21.02, 0.85 16.46 C1.85 11.9, 4.67 7.22, 9.09 4.6 C13.51 1.99, 24.15 1.3, 27.36 0.79 C30.58 0.27, 28.05 1.29, 28.38 1.52" stroke="none" stroke-width="0" fill="#a5d8ff"></path><path d="M32.15 -0.32 C38.24 -0.1, 46.32 2.62, 50.46 6.02 C54.6 9.43, 56.96 15.37, 56.98 20.09 C56.99 24.81, 54.05 30.87, 50.56 34.35 C47.06 37.82, 41.94 39.98, 35.99 40.92 C30.04 41.85, 20.36 41.81, 14.87 39.98 C9.39 38.14, 5.45 34.19, 3.07 29.9 C0.7 25.61, -1.17 18.58, 0.61 14.25 C2.4 9.93, 7.99 6.37, 13.79 3.95 C19.58 1.53, 31.73 0.17, 35.38 -0.26 C39.03 -0.69, 35.97 0.88, 35.7 1.36 M31.34 -1.27 C37.22 -1.04, 44.75 2.24, 49.19 5.94 C53.64 9.65, 57.44 16.55, 58 20.97 C58.55 25.4, 56.51 29.17, 52.53 32.5 C48.54 35.82, 40.2 39.58, 34.09 40.91 C27.99 42.24, 20.98 42.51, 15.9 40.48 C10.82 38.45, 6.15 32.94, 3.62 28.72 C1.08 24.51, -0.96 19.5, 0.69 15.18 C2.35 10.86, 8.51 5.34, 13.54 2.79 C18.57 0.25, 27.84 0.14, 30.88 -0.1 C33.91 -0.34, 31.63 0.77, 31.77 1.35" stroke="#1e1e1e" stroke-width="2" fill="none"></path></g><g transform="translate(38.07741760297131 891.4389624401824) rotate(0 14.799999237060547 10)"><text x="14.799999237060547" y="14.016" font-family="Virgil, Segoe UI Emoji" font-size="16px" fill="#1e1e1e" text-anchor="middle" style="white-space: pre;" direction="ltr" dominant-baseline="alphabetic">Dev</text></g><g transform="translate(737.5173862443412 537.9666648859657) rotate(0 68.57599639892578 30)"><text x="0" y="14.016" font-family="Virgil, Segoe UI Emoji" font-size="16px" fill="#1e1e1e" text-anchor="start" style="white-space: pre;" direction="ltr" dominant-baseline="alphabetic">OperatorContext</text><text x="0" y="34.016" font-family="Virgil, Segoe UI Emoji" font-size="16px" fill="#1e1e1e" text-anchor="start" style="white-space: pre;" direction="ltr" dominant-baseline="alphabetic">is link to a user </text><text x="0" y="54.016" font-family="Virgil, Segoe UI Emoji" font-size="16px" fill="#1e1e1e" text-anchor="start" style="white-space: pre;" direction="ltr" dominant-baseline="alphabetic">in the org</text></g><g mask="url(#mask-gMQ5KkCwZm7WQIAp2lmX0)" stroke-linecap="round"><g transform="translate(85.15035713485076 903.2059646271441) rotate(0 123.76359918206572 1.2670748403043035)"><path d="M-0.57 1.12 C40.66 1.48, 205.38 2.22, 246.77 2.26 M1.33 0.67 C42.99 1.2, 208.12 3.42, 249.09 3.66" stroke="#1e1e1e" stroke-width="1" fill="none"></path></g><g transform="translate(85.15035713485076 903.2059646271441) rotate(0 123.76359918206572 1.2670748403043035)"><path d="M225.51 11.97 C233.3 8.74, 236.89 8.35, 249.09 3.66 M225.51 11.97 C229.73 9.26, 235.34 9.14, 249.09 3.66" stroke="#1e1e1e" stroke-width="1" fill="none"></path></g><g transform="translate(85.15035713485076 903.2059646271441) rotate(0 123.76359918206572 1.2670748403043035)"><path d="M225.69 -5.13 C233.44 -4.07, 236.99 -0.16, 249.09 3.66 M225.69 -5.13 C230 -4.34, 235.57 -0.96, 249.09 3.66" stroke="#1e1e1e" stroke-width="1" fill="none"></path></g></g><mask id="mask-gMQ5KkCwZm7WQIAp2lmX0"><rect x="0" y="0" fill="#fff" width="432.6775554989822" height="1005.7401143077527"></rect><rect x="178.5059572782202" y="894.4730394674484" fill="#000" width="60.81599807739258" height="20" opacity="1"></rect></mask><g transform="translate(178.5059572782202 894.4730394674484) rotate(0 30.903437170190728 10.896303411889903)"><text x="30.40799903869629" y="14.016" font-family="Virgil, Segoe UI Emoji" font-size="16px" fill="#1e1e1e" text-anchor="middle" style="white-space: pre;" direction="ltr" dominant-baseline="alphabetic">creates</text></g><g stroke-linecap="round" transform="translate(41.09873470804223 650.6689951973758) rotate(0 21.183283501918822 17.765861524559)"><path d="M24.79 0.53 C29.14 0.93, 34.9 3.3, 37.79 6.15 C40.67 9, 42.21 13.75, 42.11 17.64 C42.01 21.53, 39.96 26.55, 37.18 29.5 C34.39 32.45, 29.82 34.65, 25.42 35.34 C21.03 36.03, 14.86 35.57, 10.81 33.63 C6.75 31.69, 2.68 27.39, 1.08 23.71 C-0.51 20.02, -0.33 15.08, 1.25 11.54 C2.82 7.99, 6.43 4.23, 10.52 2.41 C14.61 0.6, 23.16 0.86, 25.78 0.63 C28.39 0.4, 26.28 0.73, 26.22 1.05 M25.09 0.76 C29.2 1.39, 34.4 4.06, 37.31 6.89 C40.22 9.71, 42.68 13.97, 42.55 17.71 C42.42 21.45, 39.65 26.32, 36.52 29.32 C33.39 32.32, 28.17 35, 23.76 35.71 C19.34 36.41, 13.76 35.57, 10.04 33.54 C6.32 31.52, 2.99 27.34, 1.42 23.55 C-0.14 19.77, -1.02 14.29, 0.66 10.83 C2.35 7.38, 7.49 4.63, 11.54 2.83 C15.59 1.04, 22.66 0.49, 24.97 0.04 C27.27 -0.42, 25.39 -0.36, 25.36 0.1" stroke="none" stroke-width="0" fill="#b2f2bb"></path><path d="M24.66 0.42 C28.94 0.96, 35.03 3.94, 37.93 6.8 C40.83 9.67, 42.09 13.82, 42.05 17.61 C42.01 21.41, 40.49 26.69, 37.68 29.58 C34.86 32.47, 29.77 34.35, 25.16 34.94 C20.55 35.53, 14.02 34.99, 10.02 33.12 C6.02 31.26, 2.61 27.37, 1.18 23.75 C-0.24 20.13, -0.1 14.98, 1.46 11.38 C3.02 7.77, 6.62 3.97, 10.54 2.13 C14.46 0.28, 22.47 0.48, 24.97 0.3 C27.47 0.12, 25.46 0.7, 25.54 1.05 M17.73 0.58 C22.15 -0.25, 28.71 0.25, 32.58 2.14 C36.44 4.03, 39.45 8.34, 40.92 11.92 C42.39 15.51, 43.02 20.13, 41.38 23.66 C39.75 27.19, 35.12 31.13, 31.1 33.12 C27.09 35.12, 21.65 36.21, 17.29 35.63 C12.92 35.05, 7.68 32.57, 4.92 29.62 C2.16 26.68, 0.76 21.79, 0.71 17.93 C0.67 14.08, 1.85 9.54, 4.66 6.49 C7.46 3.44, 15.37 0.66, 17.55 -0.38 C19.72 -1.41, 17.53 -0.04, 17.7 0.29" stroke="#1e1e1e" stroke-width="2" fill="none"></path></g><g stroke-linecap="round" transform="translate(10 688.4313293255409) rotate(0 56.59015413145835 21)"><path d="M78.11 2.41 C87.16 3.38, 96.54 5.58, 102.38 8.45 C108.22 11.32, 112.62 15.76, 113.14 19.61 C113.67 23.47, 110.62 28.13, 105.52 31.56 C100.42 34.98, 91.71 38.41, 82.54 40.17 C73.38 41.94, 60.66 42.48, 50.54 42.15 C40.43 41.83, 29.65 40.45, 21.86 38.22 C14.07 35.99, 7.32 32.5, 3.79 28.76 C0.27 25.02, -1.71 19.68, 0.71 15.77 C3.13 11.86, 10.67 7.81, 18.31 5.29 C25.95 2.76, 36.19 1.29, 46.55 0.61 C56.92 -0.07, 74.38 0.95, 80.51 1.18 C86.64 1.42, 83.59 1.6, 83.35 2.01 M75.31 0.25 C84.76 1.46, 97.21 6.63, 103.42 9.77 C109.63 12.91, 112.04 15.71, 112.55 19.09 C113.06 22.48, 111.35 26.41, 106.47 30.06 C101.6 33.71, 92.15 39, 83.3 40.99 C74.45 42.98, 63.75 42.41, 53.38 41.98 C43.01 41.55, 29.44 40.86, 21.1 38.41 C12.77 35.96, 6.6 30.94, 3.37 27.3 C0.14 23.66, -0.39 20.08, 1.7 16.55 C3.8 13.01, 8.54 8.79, 15.96 6.09 C23.37 3.39, 36.04 1.15, 46.21 0.37 C56.37 -0.41, 71.77 0.95, 76.93 1.42 C82.09 1.88, 77.66 2.87, 77.17 3.17" stroke="none" stroke-width="0" fill="#b2f2bb"></path><path d="M42.31 1.42 C51.47 0.03, 63.05 -0.79, 72.79 0.31 C82.53 1.41, 93.92 5.16, 100.75 8.05 C107.57 10.94, 112.7 13.97, 113.72 17.66 C114.75 21.34, 111.44 26.59, 106.88 30.14 C102.31 33.7, 94.85 37.05, 86.35 38.98 C77.86 40.9, 66.16 41.83, 55.9 41.69 C45.63 41.55, 33.46 40.21, 24.78 38.14 C16.1 36.08, 7.88 32.61, 3.8 29.29 C-0.28 25.97, -1.59 21.83, 0.32 18.21 C2.23 14.59, 6.19 10.75, 15.27 7.58 C24.35 4.41, 45.86 0.29, 54.79 -0.81 C63.72 -1.91, 68.64 0.36, 68.84 0.98 M44.95 -0.19 C54.15 -1.33, 65.61 -0.51, 75.06 1.04 C84.52 2.59, 95.31 5.86, 101.67 9.11 C108.02 12.36, 112.18 16.77, 113.21 20.52 C114.24 24.28, 112.86 28.41, 107.85 31.64 C102.84 34.88, 92.36 38.41, 83.15 39.92 C73.94 41.44, 62.63 41.16, 52.57 40.72 C42.51 40.29, 30.77 39.47, 22.8 37.3 C14.82 35.13, 8.18 31.16, 4.72 27.7 C1.25 24.23, -0.09 20.03, 2.02 16.49 C4.12 12.96, 10.4 9.13, 17.34 6.48 C24.28 3.84, 38.99 1.32, 43.65 0.62 C48.31 -0.08, 45.07 2.07, 45.3 2.27" stroke="#1e1e1e" stroke-width="2" fill="none"></path></g><g transform="translate(32.50286998582351 699.5820869206234) rotate(0 34.07200241088867 10)"><text x="34.07200241088867" y="14.016" font-family="Virgil, Segoe UI Emoji" font-size="16px" fill="#1e1e1e" text-anchor="middle" style="white-space: pre;" direction="ltr" dominant-baseline="alphabetic">Platform</text></g><g mask="url(#mask-BYdn2Rg3ZLDUqUip0ATmY)" stroke-linecap="round"><g transform="translate(130.4226346207647 706.8252031660122) rotate(0 78.69641942974181 -0.8472359337130229)"><path d="M0.3 0.94 C26.77 0.69, 132.13 -2.16, 158.19 -2.44 M-1 0.38 C25.44 0.36, 130.97 -0.81, 157.65 -1.3" stroke="#1e1e1e" stroke-width="1" fill="none"></path></g><g transform="translate(130.4226346207647 706.8252031660122) rotate(0 78.69641942974181 -0.8472359337130229)"><path d="M134.28 7.58 C141.67 6.66, 144.61 1.87, 157.65 -1.3 M134.28 7.58 C142.41 3.18, 152.07 0.56, 157.65 -1.3" stroke="#1e1e1e" stroke-width="1" fill="none"></path></g><g transform="translate(130.4226346207647 706.8252031660122) rotate(0 78.69641942974181 -0.8472359337130229)"><path d="M134.04 -9.52 C141.35 -6.24, 144.35 -6.81, 157.65 -1.3 M134.04 -9.52 C142.35 -7.44, 152.11 -3.58, 157.65 -1.3" stroke="#1e1e1e" stroke-width="1" fill="none"></path></g></g><mask id="mask-BYdn2Rg3ZLDUqUip0ATmY"><rect x="0" y="0" fill="#fff" width="387.81547348024856" height="808.5196750334383"></rect><rect x="178.71105501181046" y="695.9779672322993" fill="#000" width="60.81599807739258" height="20" opacity="1"></rect></mask><g transform="translate(178.71105501181046 695.9779672322993) rotate(0 30.304046485377285 10.09324879907058)"><text x="30.40799903869629" y="14.016" font-family="Virgil, Segoe UI Emoji" font-size="16px" fill="#1e1e1e" text-anchor="middle" style="white-space: pre;" direction="ltr" dominant-baseline="alphabetic">creates</text></g><g mask="url(#mask-0X4W8BixRK6KJGDXc6c7d)" stroke-linecap="round"><g transform="translate(350.3446515443279 887.3465194062283) rotate(0 -2.4561737539368096 -82.42638561165268)"><path d="M-0.77 0.95 C-1.61 -26.2, -3.44 -135.86, -4.27 -163.66" stroke="#1e1e1e" stroke-width="1.5" fill="none" stroke-dasharray="8 9"></path></g><g transform="translate(350.3446515443279 887.3465194062283) rotate(0 -2.4561737539368096 -82.42638561165268)"><path d="M4.81 -140.36 C3.22 -147.87, 0.31 -158.86, -4.27 -163.66" stroke="#1e1e1e" stroke-width="1.5" fill="none"></path></g><g transform="translate(350.3446515443279 887.3465194062283) rotate(0 -2.4561737539368096 -82.42638561165268)"><path d="M-12.28 -139.98 C-7.62 -147.52, -4.27 -158.65, -4.27 -163.66" stroke="#1e1e1e" stroke-width="1.5" fill="none"></path></g></g><mask id="mask-0X4W8BixRK6KJGDXc6c7d"><rect x="0" y="0" fill="#fff" width="455.2569990522013" height="1152.1992906295336"></rect><rect x="336.1844773173689" y="794.9201337945756" fill="#000" width="23.408000946044922" height="20" opacity="1"></rect></mask><g transform="translate(336.1844773173689 794.9201337945756) rotate(0 11.643713215365779 11.073785665258697)"><text x="11.704000473022461" y="14.016" font-family="Virgil, Segoe UI Emoji" font-size="16px" fill="#1e1e1e" text-anchor="middle" style="white-space: pre;" direction="ltr" dominant-baseline="alphabetic">ref</text></g><g mask="url(#mask-3d0ST-qFnL7sl9OXecWBp)" stroke-linecap="round"><g transform="translate(422.8672611768111 884.4956242429298) rotate(0 -27.63842767966389 -79.12180813819327)"><path d="M-0.83 -0.96 C-10.13 -27.55, -46.1 -132.14, -55.14 -158.31" stroke="#1e1e1e" stroke-width="1.5" fill="none" stroke-dasharray="8 9"></path></g><g transform="translate(422.8672611768111 884.4956242429298) rotate(0 -27.63842767966389 -79.12180813819327)"><path d="M-39.4 -138.89 C-46.77 -145.65, -50.85 -152.48, -55.14 -158.31" stroke="#1e1e1e" stroke-width="1.5" fill="none"></path></g><g transform="translate(422.8672611768111 884.4956242429298) rotate(0 -27.63842767966389 -79.12180813819327)"><path d="M-55.57 -133.31 C-57.27 -141.93, -55.63 -150.74, -55.14 -158.31" stroke="#1e1e1e" stroke-width="1.5" fill="none"></path></g></g><mask id="mask-3d0ST-qFnL7sl9OXecWBp"><rect x="0" y="0" fill="#fff" width="578.1441165361389" height="1142.7392405193164"></rect><rect x="383.52483302412475" y="795.3738161047363" fill="#000" width="23.408000946044922" height="20" opacity="1"></rect></mask><g transform="translate(383.52483302412475 795.3738161047365) rotate(0 11.355059817806023 9.485632040724226)"><text x="11.704000473022461" y="14.016" font-family="Virgil, Segoe UI Emoji" font-size="16px" fill="#1e1e1e" text-anchor="middle" style="white-space: pre;" direction="ltr" dominant-baseline="alphabetic">ref</text></g><g mask="url(#mask-Web2SH4wm2mysQ7MhcL6G)" stroke-linecap="round"><g transform="translate(567.3742065632273 876.6556625438584) rotate(0 7.633603371348727 -89.08811044387141)"><path d="M0.16 0.27 C2.62 -29.5, 12.44 -148.78, 14.89 -178.71" stroke="#1e1e1e" stroke-width="1.5" fill="none" stroke-dasharray="8 9"></path></g><g transform="translate(567.3742065632273 876.6556625438584) rotate(0 7.633603371348727 -89.08811044387141)"><path d="M21.49 -154.6 C19.9 -162.72, 16.5 -170.27, 14.89 -178.71" stroke="#1e1e1e" stroke-width="1.5" fill="none"></path></g><g transform="translate(567.3742065632273 876.6556625438584) rotate(0 7.633603371348727 -89.08811044387141)"><path d="M4.45 -156 C8.16 -163.7, 10.06 -170.82, 14.89 -178.71" stroke="#1e1e1e" stroke-width="1.5" fill="none"></path></g></g><mask id="mask-Web2SH4wm2mysQ7MhcL6G"><rect x="0" y="0" fill="#fff" width="682.6414133059247" height="1154.8318834316012"></rect><rect x="563.3038094615536" y="777.5675520999871" fill="#000" width="23.408000946044922" height="20" opacity="1"></rect></mask><g transform="translate(563.3038094615536 777.5675520999871) rotate(0 11.594789293780877 9.867166831716872)"><text x="11.704000473022461" y="14.016" font-family="Virgil, Segoe UI Emoji" font-size="16px" fill="#1e1e1e" text-anchor="middle" style="white-space: pre;" direction="ltr" dominant-baseline="alphabetic">ref</text></g><g mask="url(#mask-LT9RJJB9S000CZFPuY9i1)" stroke-linecap="round"><g transform="translate(623.7905128119146 872.3793197989107) rotate(0 -10.835827428134507 -86.9499390713977)"><path d="M-0.41 -1.13 C-3.98 -30.1, -18.38 -145.75, -21.82 -174.37" stroke="#1e1e1e" stroke-width="1.5" fill="none" stroke-dasharray="8 9"></path></g><g transform="translate(623.7905128119146 872.3793197989107) rotate(0 -10.835827428134507 -86.9499390713977)"><path d="M-10.47 -152.1 C-15.3 -158.36, -17.26 -163.04, -21.82 -174.37" stroke="#1e1e1e" stroke-width="1.5" fill="none"></path></g><g transform="translate(623.7905128119146 872.3793197989107) rotate(0 -10.835827428134507 -86.9499390713977)"><path d="M-27.44 -150.02 C-27.7 -156.78, -25.1 -162.02, -21.82 -174.37" stroke="#1e1e1e" stroke-width="1.5" fill="none"></path></g></g><mask id="mask-LT9RJJB9S000CZFPuY9i1"><rect x="0" y="0" fill="#fff" width="745.4621676681834" height="1146.2791979417061"></rect><rect x="601.2506849107576" y="775.429380727513" fill="#000" width="23.408000946044922" height="20" opacity="1"></rect></mask><g transform="translate(601.2506849107576 775.429380727513) rotate(0 11.429210237041161 9.200518944487044)"><text x="11.704000473022461" y="14.016" font-family="Virgil, Segoe UI Emoji" font-size="16px" fill="#1e1e1e" text-anchor="middle" style="white-space: pre;" direction="ltr" dominant-baseline="alphabetic">ref</text></g><g stroke-linecap="round"><g transform="translate(450.1823454129144 516.3771172386055) rotate(0 -27.773990424425847 -107.67817422904795)"><path d="M0.64 1.01 C-8.47 -34.93, -45.31 -180.02, -54.84 -216.15" stroke="#1e1e1e" stroke-width="1.5" fill="none" stroke-dasharray="1.5 7"></path></g><g transform="translate(450.1823454129144 516.3771172386055) rotate(0 -27.773990424425847 -107.67817422904795)"><path d="M-40.69 -195.54 C-42.99 -200.21, -50.07 -208.97, -54.84 -216.15" stroke="#1e1e1e" stroke-width="1.5" fill="none" stroke-dasharray="1.5 5"></path></g><g transform="translate(450.1823454129144 516.3771172386055) rotate(0 -27.773990424425847 -107.67817422904795)"><path d="M-57.25 -191.26 C-54.77 -197.26, -57.08 -207.24, -54.84 -216.15" stroke="#1e1e1e" stroke-width="1.5" fill="none" stroke-dasharray="1.5 5"></path></g></g><mask></mask><g stroke-linecap="round"><g transform="translate(517.299511823283 514.0015888154817) rotate(0 23.400796489935146 -103.91240521355519)"><path d="M0.71 -0.79 C8.24 -35.66, 38.13 -173.82, 45.82 -208.23" stroke="#1e1e1e" stroke-width="1.5" fill="none" stroke-dasharray="1.5 7"></path></g><g transform="translate(517.299511823283 514.0015888154817) rotate(0 23.400796489935146 -103.91240521355519)"><path d="M49.14 -183.45 C46.44 -193.83, 45.91 -200.91, 45.82 -208.23" stroke="#1e1e1e" stroke-width="1.5" fill="none" stroke-dasharray="1.5 5"></path></g><g transform="translate(517.299511823283 514.0015888154817) rotate(0 23.400796489935146 -103.91240521355519)"><path d="M32.44 -187.12 C35.67 -196.3, 41.05 -202.08, 45.82 -208.23" stroke="#1e1e1e" stroke-width="1.5" fill="none" stroke-dasharray="1.5 5"></path></g></g><mask></mask><g mask="url(#mask-oQQ8wr0DsWmamRyXs6ybj)" stroke-linecap="round"><g transform="translate(466.62378186879823 608.0078797547976) rotate(0 -3.4178576335286834 101.05725470440836)"><path d="M-0.98 -0.41 C-2.23 33.5, -5.99 169, -6.81 202.66 M0.7 -1.66 C-0.77 31.95, -6.6 166.78, -7.74 200.82" stroke="#1e1e1e" stroke-width="1" fill="none"></path></g><g transform="translate(466.62378186879823 608.0078797547976) rotate(0 -3.4178576335286834 101.05725470440836)"><path d="M-15.37 177.02 C-13.46 185.68, -9.13 195.83, -7.74 200.82 M-15.37 177.02 C-13 182.64, -12.18 189.04, -7.74 200.82" stroke="#1e1e1e" stroke-width="1" fill="none"></path></g><g transform="translate(466.62378186879823 608.0078797547976) rotate(0 -3.4178576335286834 101.05725470440836)"><path d="M1.72 177.68 C-2.5 185.97, -4.32 195.88, -7.74 200.82 M1.72 177.68 C-0.28 183.15, -3.84 189.38, -7.74 200.82" stroke="#1e1e1e" stroke-width="1" fill="none"></path></g></g><mask id="mask-oQQ8wr0DsWmamRyXs6ybj"><rect x="0" y="0" fill="#fff" width="573.4594971358556" height="910.1223891636143"></rect><rect x="431.7899257764075" y="699.0651344592061" fill="#000" width="62.83199691772461" height="20" opacity="1"></rect></mask><g transform="translate(431.7899257764075 699.0651344592061) rotate(0 31.317437264155387 9.440548868076803)"><text x="31.415998458862305" y="14.016" font-family="Virgil, Segoe UI Emoji" font-size="16px" fill="#1e1e1e" text-anchor="middle" style="white-space: pre;" direction="ltr" dominant-baseline="alphabetic">watches</text></g><g stroke-linecap="round"><g transform="translate(461.7449728668457 759.8547394570514) rotate(0 26.824516566852708 29.698571913301294)"><path d="M0.99 -0.53 C9.86 9.3, 44.39 49.61, 53.27 59.5 M0.05 1.81 C8.73 11.8, 43.16 51.42, 52.12 61.1" stroke="#1e1e1e" stroke-width="1" fill="none"></path></g><g transform="translate(461.7449728668457 759.8547394570514) rotate(0 26.824516566852708 29.698571913301294)"><path d="M30.09 49.27 C35.93 52.02, 43.65 57.22, 52.12 61.1 M30.09 49.27 C35.59 52.83, 41.31 56.06, 52.12 61.1" stroke="#1e1e1e" stroke-width="1" fill="none"></path></g><g transform="translate(461.7449728668457 759.8547394570514) rotate(0 26.824516566852708 29.698571913301294)"><path d="M42.85 37.88 C44.88 44.19, 48.74 52.83, 52.12 61.1 M42.85 37.88 C45.04 44.31, 47.53 50.43, 52.12 61.1" stroke="#1e1e1e" stroke-width="1" fill="none"></path></g></g><mask></mask><g stroke-opacity="0.8" fill-opacity="0.8" stroke-linecap="round" transform="translate(412.72633799336336 410.8204945848029) rotate(0 12 9)"><path d="M10.26 0.22 C12.66 -0.29, 16.5 0.08, 18.65 1.06 C20.79 2.04, 22.41 4.23, 23.13 6.1 C23.85 7.97, 23.84 10.46, 22.95 12.28 C22.05 14.1, 19.95 16.13, 17.77 17.02 C15.6 17.91, 12.4 17.99, 9.91 17.63 C7.41 17.28, 4.37 16.28, 2.78 14.88 C1.19 13.47, 0.28 11.25, 0.39 9.2 C0.5 7.15, 1.79 4.08, 3.46 2.6 C5.14 1.13, 9.24 0.72, 10.44 0.35 C11.65 -0.01, 10.65 0.36, 10.71 0.42" stroke="none" stroke-width="0" fill="#e7f5ff"></path><path d="M13.38 0.06 C15.91 0.24, 19.21 1.44, 21.04 2.93 C22.87 4.42, 24.24 7.14, 24.37 9 C24.5 10.87, 23.4 12.68, 21.82 14.13 C20.24 15.57, 17.5 17.18, 14.89 17.66 C12.27 18.13, 8.5 17.76, 6.14 16.96 C3.79 16.16, 1.74 14.58, 0.76 12.86 C-0.22 11.14, -0.51 8.48, 0.27 6.64 C1.04 4.79, 3.12 2.91, 5.41 1.79 C7.69 0.67, 12.49 0.12, 13.98 -0.07 C15.46 -0.27, 14.29 0.47, 14.32 0.63" stroke="#1e1e1e" stroke-width="2.5" fill="none" stroke-dasharray="8 10"></path></g><g stroke-opacity="0.8" fill-opacity="0.8" stroke-linecap="round" transform="translate(394.2789352867662 428.7146549612671) rotate(0 32.50785374142242 35.5)"><path d="M35.79 0.25 C41.62 0.62, 49.26 4.67, 54.02 9.42 C58.78 14.17, 62.93 22, 64.34 28.75 C65.76 35.49, 65.13 43.52, 62.53 49.88 C59.92 56.24, 54.22 63.29, 48.72 66.89 C43.23 70.5, 35.76 72.57, 29.55 71.53 C23.35 70.5, 16.34 65.42, 11.5 60.68 C6.65 55.94, 1.96 49.69, 0.46 43.09 C-1.04 36.5, -0.22 27.63, 2.5 21.13 C5.23 14.63, 10.28 7.34, 16.8 4.08 C23.31 0.82, 36.54 1.31, 41.57 1.56 C46.59 1.81, 47.02 4.88, 46.95 5.59" stroke="none" stroke-width="0" fill="#e7f5ff"></path><path d="M22.71 1.98 C28.46 -0.42, 36.97 0.62, 43.03 2.59 C49.1 4.55, 55.37 8.39, 59.09 13.79 C62.82 19.18, 65.54 27.91, 65.38 34.94 C65.23 41.98, 61.99 50.17, 58.16 55.99 C54.34 61.8, 48.44 67.52, 42.45 69.84 C36.46 72.16, 28.27 71.98, 22.24 69.9 C16.21 67.81, 9.96 63.05, 6.27 57.31 C2.59 51.57, 0.19 42.43, 0.16 35.46 C0.13 28.48, 1.8 21.26, 6.11 15.46 C10.41 9.67, 22.41 3.09, 26.01 0.68 C29.61 -1.74, 27.82 0.22, 27.69 0.97" stroke="#1e1e1e" stroke-width="2.5" fill="none" stroke-dasharray="8 10"></path></g><g stroke-opacity="0.8" fill-opacity="0.8" transform="translate(408.9282654652079 444.11236422914476) rotate(0 17.871999740600586 20)"><text x="17.871999740600586" y="14.016" font-family="Virgil, Segoe UI Emoji" font-size="16px" fill="#1e1e1e" text-anchor="middle" style="white-space: pre;" direction="ltr" dominant-baseline="alphabetic">Op </text><text x="17.871999740600586" y="34.016" font-family="Virgil, Segoe UI Emoji" font-size="16px" fill="#1e1e1e" text-anchor="middle" style="white-space: pre;" direction="ltr" dominant-baseline="alphabetic">User</text></g><g stroke-opacity="0.8" fill-opacity="0.8" stroke-linecap="round" transform="translate(525.8098076431911 407.3731808963694) rotate(0 12 9)"><path d="M10.35 0.09 C12.79 -0.22, 16.34 0.59, 18.57 1.61 C20.8 2.63, 22.96 4.35, 23.72 6.21 C24.49 8.08, 24.14 10.92, 23.15 12.79 C22.16 14.66, 20.02 16.67, 17.79 17.42 C15.55 18.17, 12.32 17.74, 9.74 17.28 C7.16 16.83, 3.95 16.1, 2.29 14.67 C0.64 13.24, -0.38 10.7, -0.2 8.69 C-0.02 6.67, 1.53 4.04, 3.39 2.59 C5.24 1.13, 9.55 0.3, 10.92 -0.06 C12.3 -0.41, 11.57 0.22, 11.63 0.44" stroke="none" stroke-width="0" fill="#fff9db"></path><path d="M12.64 -0.29 C15.05 -0.44, 18.4 0.87, 20.21 2.19 C22.01 3.52, 23.17 5.7, 23.47 7.68 C23.77 9.67, 23.32 12.41, 21.99 14.1 C20.65 15.79, 17.88 17.23, 15.46 17.82 C13.04 18.42, 9.79 18.48, 7.46 17.69 C5.13 16.89, 2.68 14.76, 1.49 13.04 C0.3 11.33, -0.3 9.29, 0.3 7.42 C0.89 5.54, 2.98 3.02, 5.05 1.79 C7.13 0.55, 11.39 0.19, 12.76 0 C14.13 -0.19, 13.18 0.47, 13.28 0.65" stroke="#1e1e1e" stroke-width="2.5" fill="none" stroke-dasharray="8 10"></path></g><g stroke-opacity="0.8" fill-opacity="0.8" stroke-linecap="round" transform="translate(507.362404936594 425.94860456670085) rotate(0 35.20272708405719 35.5)"><path d="M36.65 -0.38 C43.26 -0.64, 51.43 3.41, 56.94 7.85 C62.46 12.28, 67.68 19.81, 69.75 26.25 C71.82 32.69, 71.83 39.94, 69.35 46.46 C66.88 52.98, 60.84 61.21, 54.91 65.37 C48.98 69.52, 40.59 71.76, 33.77 71.39 C26.95 71.02, 19.5 67.47, 13.97 63.13 C8.43 58.8, 2.71 51.89, 0.56 45.38 C-1.59 38.88, -1.35 30.52, 1.05 24.11 C3.46 17.7, 8.63 10.92, 15.01 6.94 C21.39 2.95, 35.08 1.27, 39.36 0.21 C43.63 -0.85, 40.64 -0.15, 40.66 0.57" stroke="none" stroke-width="0" fill="#fff9db"></path><path d="M51.65 3.7 C57.49 6.37, 62.81 13.02, 65.8 19.37 C68.78 25.73, 70.61 34.87, 69.56 41.85 C68.51 48.82, 64.35 56.31, 59.51 61.21 C54.66 66.12, 47.19 70.34, 40.49 71.26 C33.78 72.17, 25.38 69.9, 19.28 66.7 C13.18 63.51, 6.85 58.26, 3.86 52.08 C0.87 45.89, 0.35 36.55, 1.35 29.58 C2.35 22.61, 5.24 14.99, 9.88 10.25 C14.52 5.52, 21.11 1.54, 29.19 1.19 C37.27 0.85, 52.82 5.95, 58.34 8.18 C63.87 10.41, 62.91 14.21, 62.31 14.56" stroke="#1e1e1e" stroke-width="2.5" fill="none" stroke-dasharray="8 10"></path></g><g stroke-opacity="0.8" fill-opacity="0.8" transform="translate(524.8010452426543 441.3463138345785) rotate(0 17.871999740600586 20)"><text x="17.871999740600586" y="14.016" font-family="Virgil, Segoe UI Emoji" font-size="16px" fill="#1e1e1e" text-anchor="middle" style="white-space: pre;" direction="ltr" dominant-baseline="alphabetic">Op </text><text x="17.871999740600586" y="34.016" font-family="Virgil, Segoe UI Emoji" font-size="16px" fill="#1e1e1e" text-anchor="middle" style="white-space: pre;" direction="ltr" dominant-baseline="alphabetic">User</text></g><g mask="url(#mask-u-Fi46koIJQ81T3JcLypU)" stroke-linecap="round"><g stroke-opacity="0.8" fill-opacity="0.8" transform="translate(340.97081579222777 157.91975568038265) rotate(0 -5.469853625344513 33.94787146435863)"><path d="M0.03 0.03 C-1.72 11.11, -8.45 55.45, -10.13 66.78 M-1.41 -0.99 C-3.28 10.16, -9.17 56, -10.65 67.73" stroke="#1e1e1e" stroke-width="1" fill="none"></path></g><g stroke-opacity="0.8" fill-opacity="0.8" transform="translate(340.97081579222777 157.91975568038265) rotate(0 -5.469853625344513 33.94787146435863)"><path d="M-16.14 43.34 C-14.22 52.7, -14.33 60.88, -10.65 67.73 M-16.14 43.34 C-13.92 50.42, -12.04 58.74, -10.65 67.73" stroke="#1e1e1e" stroke-width="1" fill="none"></path></g><g stroke-opacity="0.8" fill-opacity="0.8" transform="translate(340.97081579222777 157.91975568038265) rotate(0 -5.469853625344513 33.94787146435863)"><path d="M0.82 45.52 C-2.83 54.16, -8.51 61.63, -10.65 67.73 M0.82 45.52 C-2.21 52.04, -5.58 59.68, -10.65 67.73" stroke="#1e1e1e" stroke-width="1" fill="none"></path></g></g><mask id="mask-u-Fi46koIJQ81T3JcLypU"><rect x="0" y="0" fill="#fff" width="451.9105230429168" height="325.8154986090999"></rect><rect x="318.116961388685" y="181.86762714474116" fill="#000" width="34.768001556396484" height="20" opacity="1"></rect></mask><g stroke-opacity="0.8" fill-opacity="0.8" transform="translate(318.116961388685 181.86762714474116) rotate(0 17.542270837780052 9.420123400204034)"><text x="17.384000778198242" y="14.016" font-family="Virgil, Segoe UI Emoji" font-size="16px" fill="#1e1e1e" text-anchor="middle" style="white-space: pre;" direction="ltr" dominant-baseline="alphabetic">owns</text></g><g stroke-linecap="round"><g stroke-opacity="0.8" fill-opacity="0.8" transform="translate(344.6276896451768 161.05019701550418) rotate(0 14.30008369798793 31.82802575113874)"><path d="M-0.01 0.03 C4.82 10.67, 23.35 52.32, 28.15 62.9 M-1.48 -1.01 C3.23 9.86, 22.03 53.09, 26.97 64.05" stroke="#1e1e1e" stroke-width="1" fill="none"></path></g><g stroke-opacity="0.8" fill-opacity="0.8" transform="translate(344.6276896451768 161.05019701550418) rotate(0 14.30008369798793 31.82802575113874)"><path d="M9.66 46.01 C13.56 49.43, 16.26 54.69, 26.97 64.05 M9.66 46.01 C15.42 52.14, 18.88 56.54, 26.97 64.05" stroke="#1e1e1e" stroke-width="1" fill="none"></path></g><g stroke-opacity="0.8" fill-opacity="0.8" transform="translate(344.6276896451768 161.05019701550418) rotate(0 14.30008369798793 31.82802575113874)"><path d="M25.3 39.1 C25.53 44.12, 24.62 50.97, 26.97 64.05 M25.3 39.1 C26.53 47.19, 25.51 53.58, 26.97 64.05" stroke="#1e1e1e" stroke-width="1" fill="none"></path></g></g><mask></mask><g stroke-linecap="round"><g stroke-opacity="0.8" fill-opacity="0.8" transform="translate(578.7091819777597 137.6843229151848) rotate(0 -27.96702716606751 32.49533424456695)"><path d="M1.11 -1.11 C-8.21 9.97, -47.15 54.95, -56.5 65.87 M0.23 0.93 C-9.25 11.72, -48.49 53.46, -57.75 64.2" stroke="#1e1e1e" stroke-width="1" fill="none"></path></g><g stroke-opacity="0.8" fill-opacity="0.8" transform="translate(578.7091819777597 137.6843229151848) rotate(0 -27.96702716606751 32.49533424456695)"><path d="M-48.32 41.05 C-52.66 46.02, -51.72 54.3, -57.75 64.2 M-48.32 41.05 C-51.17 45.9, -53.87 52.31, -57.75 64.2" stroke="#1e1e1e" stroke-width="1" fill="none"></path></g><g stroke-opacity="0.8" fill-opacity="0.8" transform="translate(578.7091819777597 137.6843229151848) rotate(0 -27.96702716606751 32.49533424456695)"><path d="M-35.65 52.53 C-43.12 54.72, -45.38 60.11, -57.75 64.2 M-35.65 52.53 C-41.61 54.4, -47.49 57.93, -57.75 64.2" stroke="#1e1e1e" stroke-width="1" fill="none"></path></g></g><mask></mask><g mask="url(#mask-RxNFVRKWe_wmdfICiRjO3)" stroke-linecap="round"><g stroke-opacity="0.8" fill-opacity="0.8" transform="translate(581.9663029333269 137.16139173526426) rotate(0 -2.0984768688581426 32.756799834527214)"><path d="M-1.16 -0.08 C-2.13 10.79, -4.88 54.38, -5.29 65.12 M0.44 -1.16 C-0.22 9.88, -2.4 55.42, -3.16 66.45" stroke="#1e1e1e" stroke-width="1" fill="none"></path></g><g stroke-opacity="0.8" fill-opacity="0.8" transform="translate(581.9663029333269 137.16139173526426) rotate(0 -2.0984768688581426 32.756799834527214)"><path d="M-10.36 42.51 C-8.03 48.98, -6.08 59.95, -3.16 66.45 M-10.36 42.51 C-9.65 47.22, -8.27 52.35, -3.16 66.45" stroke="#1e1e1e" stroke-width="1" fill="none"></path></g><g stroke-opacity="0.8" fill-opacity="0.8" transform="translate(581.9663029333269 137.16139173526426) rotate(0 -2.0984768688581426 32.756799834527214)"><path d="M6.71 43.48 C3.17 49.45, -0.75 60.09, -3.16 66.45 M6.71 43.48 C3.97 47.96, 1.89 52.9, -3.16 66.45" stroke="#1e1e1e" stroke-width="1" fill="none"></path></g></g><mask id="mask-RxNFVRKWe_wmdfICiRjO3"><rect x="0" y="0" fill="#fff" width="686.1632566710432" height="302.6749914043187"></rect><rect x="562.4838252862705" y="159.91819156979136" fill="#000" width="34.768001556396484" height="20" opacity="1"></rect></mask><g stroke-opacity="0.8" fill-opacity="0.8" transform="translate(562.4838252862705 159.91819156979136) rotate(0 17.053358169896455 9.885899433065333)"><text x="17.384000778198242" y="14.016" font-family="Virgil, Segoe UI Emoji" font-size="16px" fill="#1e1e1e" text-anchor="middle" style="white-space: pre;" direction="ltr" dominant-baseline="alphabetic">owns</text></g><g mask="url(#mask-ctCyAf7nhzVBYaC0oK9RG)" stroke-linecap="round"><g stroke-opacity="0.8" fill-opacity="0.8" transform="translate(428.7906227672747 120.15623400019172) rotate(0 34.807857557895204 39.37282248352085)"><path d="M1 -0.58 C12.42 12.55, 57.62 65.67, 68.96 79.08" stroke="#e03131" stroke-width="1.5" fill="none" stroke-dasharray="1.5 7"></path></g><g stroke-opacity="0.8" fill-opacity="0.8" transform="translate(428.7906227672747 120.15623400019172) rotate(0 34.807857557895204 39.37282248352085)"><path d="M47.24 66.71 C53.62 69.61, 62.46 73.94, 68.96 79.08" stroke="#e03131" stroke-width="1.5" fill="none" stroke-dasharray="1.5 5"></path></g><g stroke-opacity="0.8" fill-opacity="0.8" transform="translate(428.7906227672747 120.15623400019172) rotate(0 34.807857557895204 39.37282248352085)"><path d="M60.28 55.64 C62.29 62.37, 66.75 70.44, 68.96 79.08" stroke="#e03131" stroke-width="1.5" fill="none" stroke-dasharray="1.5 5"></path></g></g><mask id="mask-ctCyAf7nhzVBYaC0oK9RG"><rect x="0" y="0" fill="#fff" width="598.4063378830651" height="298.9018789672334"></rect><rect x="409.82247934860743" y="149.52905648371257" fill="#000" width="107.552001953125" height="20" opacity="1"></rect></mask><g stroke-opacity="0.8" fill-opacity="0.8" transform="translate(409.82247934860743 149.52905648371257) rotate(0 53.948027219995765 9.87879677154126)"><text x="53.7760009765625" y="14.016" font-family="Virgil, Segoe UI Emoji" font-size="16px" fill="#e03131" text-anchor="middle" style="white-space: pre;" direction="ltr" dominant-baseline="alphabetic">access denied</text></g></svg>